<svg xmlns="http://www.w3.org/2000/svg" xmlns:xlink="http://www.w3.org/1999/xlink" width="1200" zoomAndPan="magnify" viewBox="0 0 900 899.99999" height="1200" preserveAspectRatio="xMidYMid meet" version="1.0"><path fill="#ff2774" d="M 551.816406 707.296875 C 551.621094 707.296875 551.378906 707.105469 551.140625 706.863281 C 548.46875 711.679688 546.445312 715.988281 546.445312 717.648438 C 546.445312 718.011719 546.488281 718.738281 547.144531 718.738281 C 549.359375 718.738281 554.535156 714.109375 556.652344 710.300781 C 557.328125 709.128906 557.640625 707.96875 557.640625 707.105469 C 557.640625 706.285156 557.328125 705.730469 556.753906 705.730469 C 555.136719 705.730469 552.609375 707.296875 551.816406 707.296875 M 553.261719 703.15625 C 554.996094 702.261719 557.328125 702.070312 557.808594 702.070312 C 558.917969 702.070312 561.929688 702.238281 561.929688 706.070312 C 561.929688 711.34375 552.945312 722.347656 546.105469 722.347656 C 545.121094 722.347656 542.804688 720.761719 542.804688 718.351562 C 542.804688 710.449219 558.820312 687.113281 559.570312 686.394531 C 560.289062 685.667969 562.070312 685.378906 562.722656 685.402344 C 563.179688 685.402344 563.589844 685.59375 563.589844 686.082031 C 563.589844 686.347656 563.46875 686.703125 563.15625 687.1875 C 562.339844 688.414062 557.496094 695.808594 553.261719 703.15625 " fill-opacity="1" fill-rule="nonzero"/><path fill="#ff2774" d="M 563.097656 736.246094 C 562.855469 736.273438 562.644531 736.289062 562.425781 736.289062 C 560.785156 736.289062 560.210938 735.308594 560.210938 734.054688 C 560.210938 732.941406 560.640625 731.621094 561.222656 730.539062 C 563.242188 726.734375 566.710938 724.082031 567.238281 723.339844 C 567.648438 722.730469 568.660156 720.710938 570.851562 716.566406 C 568.375 719.289062 565.460938 722.160156 562.761719 722.445312 L 562.59375 722.445312 C 561.992188 722.445312 561.289062 722.203125 560.691406 721.796875 C 559.96875 721.308594 559.824219 720.300781 559.824219 719.671875 C 559.824219 719.554688 559.824219 719.4375 559.847656 719.335938 C 560.136719 715.769531 561.367188 715.101562 564.546875 709.269531 C 566.808594 705.78125 567.699219 702.914062 568.613281 702.914062 C 569.070312 702.914062 570.445312 703.613281 570.445312 704.746094 C 570.445312 706.257812 564.136719 716.183594 564.136719 717.746094 C 564.136719 717.890625 564.207031 717.941406 564.328125 717.941406 C 565.605469 717.941406 573 711.273438 576.511719 706.019531 C 577.550781 704.480469 578.535156 702.8125 579.425781 702.8125 C 579.644531 702.8125 580.96875 702.960938 581.253906 703.34375 C 581.496094 703.683594 581.71875 703.804688 581.71875 704.09375 C 581.71875 704.285156 581.621094 704.5 581.402344 704.9375 C 580.992188 705.730469 573.863281 717.410156 571 723.339844 C 574.394531 720.472656 578.152344 717.078125 581.304688 714.210938 C 581.476562 714.066406 581.667969 713.996094 581.835938 713.996094 C 582.367188 713.996094 582.582031 714.957031 582.582031 716.28125 C 582.582031 716.6875 582.507812 717.027344 582.339844 717.171875 C 577.261719 721.070312 573.503906 724.472656 568.78125 729.550781 C 568.277344 730.082031 565.726562 735.910156 563.097656 736.246094 " fill-opacity="1" fill-rule="nonzero"/><path fill="#ff2774" d="M 618.941406 716.910156 C 620.777344 716.523438 623.566406 714.066406 626.484375 710.859375 C 626.796875 710.496094 627.011719 710.136719 627.207031 710.136719 C 627.589844 710.136719 627.734375 711.894531 627.828125 712.667969 C 627.855469 712.976562 628.023438 713.246094 628.023438 713.578125 C 628.023438 713.917969 627.878906 714.355469 627.421875 714.953125 C 625.589844 717.363281 619.59375 722.394531 617.066406 722.394531 C 614.851562 722.394531 613.621094 720.734375 613.621094 719.195312 C 613.621094 719.023438 613.644531 718.851562 613.667969 718.6875 C 614.296875 715.339844 624.074219 701.375 628.746094 694.871094 C 622.144531 701.679688 606.710938 718.152344 603.363281 720.902344 C 603.074219 721.140625 602.734375 721.238281 602.328125 721.238281 C 601.121094 721.238281 599.652344 720.273438 599.652344 719.167969 L 599.652344 719.046875 C 599.800781 717.703125 607.890625 701.929688 611.933594 695.011719 C 606.953125 700.507812 595.632812 714.449219 589.804688 726.132812 C 589.511719 726.734375 589.15625 726.898438 588.71875 726.898438 C 588.359375 726.898438 587.925781 726.777344 587.371094 726.636719 C 586.121094 726.296875 585.25 725.644531 585.25 724.609375 C 585.25 722.277344 607.023438 691.808594 614.199219 687.015625 C 614.800781 686.609375 615.261719 686.488281 615.574219 686.488281 C 616.101562 686.488281 616.320312 686.800781 616.511719 686.800781 C 616.585938 686.800781 616.632812 686.777344 616.683594 686.730469 C 616.898438 686.464844 617.378906 686.347656 617.933594 686.347656 C 619.089844 686.347656 620.605469 686.875 620.605469 687.523438 C 620.605469 687.59375 620.585938 687.648438 620.558594 687.714844 C 620.074219 689.039062 611.839844 703.101562 607.359375 711.777344 C 612.179688 705.976562 627.925781 689.085938 633.058594 686.03125 C 633.226562 685.90625 633.441406 685.859375 633.707031 685.859375 C 634.140625 685.859375 634.671875 685.984375 635.417969 686.199219 C 636.261719 686.4375 637.585938 686.464844 637.972656 686.535156 C 638.453125 686.632812 638.910156 686.992188 638.910156 687.425781 C 638.910156 687.550781 638.863281 687.691406 638.765625 687.816406 C 635.609375 692.003906 621.714844 710.6875 618.941406 716.910156 " fill-opacity="1" fill-rule="nonzero"/><path fill="#ff2774" d="M 641.472656 707.539062 C 640.699219 707.539062 640.601562 707.152344 640.601562 706.449219 C 640.601562 706.210938 640.652344 706.019531 640.699219 705.824219 C 640 706.070312 639.351562 706.40625 638.722656 706.769531 C 637.929688 707.199219 634.628906 709.367188 634.628906 710.257812 C 634.628906 710.449219 635.015625 710.449219 635.113281 710.449219 C 636.410156 710.449219 637.496094 709.660156 638.722656 709.660156 C 638.871094 709.660156 639.0625 709.660156 639.207031 709.699219 C 639.617188 709.921875 640.238281 710.910156 640.238281 711.292969 C 640.238281 711.703125 639.707031 712.109375 639.402344 712.375 C 638.699219 712.953125 637.878906 713.007812 637.132812 713.414062 C 636.144531 713.96875 632.050781 716.226562 632.050781 717.316406 C 632.050781 719 633.980469 719.195312 635.257812 719.195312 C 638.773438 719.195312 642.121094 715.867188 644.332031 714.207031 C 644.480469 714.109375 644.695312 713.96875 644.890625 713.96875 C 645.515625 713.96875 645.515625 715.433594 645.515625 715.867188 C 645.515625 716.28125 645.515625 716.761719 645.371094 717.171875 C 645.226562 717.554688 644.742188 718.011719 644.382812 718.304688 C 642.070312 720.179688 638.53125 722.492188 634.628906 722.492188 C 631.765625 722.492188 628.007812 721.601562 628.007812 718.058594 C 628.007812 715.386719 630.34375 713.871094 632.609375 713.027344 C 631.285156 712.421875 631.164062 711.488281 631.164062 710.210938 C 631.164062 705.464844 639.15625 702.070312 643.253906 702.070312 C 644.09375 702.070312 645.683594 702.5 645.683594 703.539062 C 645.683594 705.683594 643.613281 707.539062 641.472656 707.539062 " fill-opacity="1" fill-rule="nonzero"/><path fill="#ff2774" d="M 662.9375 689.039062 C 661.664062 689.039062 654.824219 698.863281 653.863281 700.601562 C 652.511719 703.003906 651.164062 706.117188 650.296875 708.738281 C 652.632812 705.972656 663.175781 692.003906 663.175781 689.402344 C 663.175781 689.207031 663.132812 689.039062 662.9375 689.039062 M 649.308594 714.207031 C 649.214844 715 648.921875 715.726562 648.921875 716.519531 C 648.921875 718.058594 650.054688 718.925781 651.523438 718.925781 C 654.535156 718.925781 657.859375 713.96875 658.894531 713.96875 C 659.519531 713.96875 659.519531 715.339844 659.519531 715.726562 L 659.519531 716.207031 C 659.519531 717.289062 658.964844 717.84375 658.386719 718.492188 C 656.4375 720.710938 652.894531 722.492188 649.914062 722.492188 C 646.707031 722.492188 645.214844 720.421875 645.214844 717.3125 C 645.214844 710.644531 649.574219 700.886719 653.402344 695.46875 C 656.367188 691.277344 660.964844 685.402344 664.261719 685.402344 C 665.730469 685.402344 667.179688 686.34375 667.179688 687.910156 C 667.179688 693.449219 653.402344 709.660156 649.308594 714.207031 " fill-opacity="1" fill-rule="nonzero"/><path fill="#ff2774" d="M 658.636719 736.246094 C 658.398438 736.273438 658.179688 736.289062 657.964844 736.289062 C 656.328125 736.289062 655.75 735.308594 655.75 734.054688 C 655.75 732.941406 656.183594 731.621094 656.757812 730.539062 C 658.785156 726.734375 662.25 724.082031 662.777344 723.339844 C 663.191406 722.730469 664.199219 720.710938 666.390625 716.566406 C 663.914062 719.289062 660.996094 722.160156 658.300781 722.445312 L 658.132812 722.445312 C 657.53125 722.445312 656.832031 722.203125 656.230469 721.796875 C 655.511719 721.308594 655.363281 720.300781 655.363281 719.671875 C 655.363281 719.554688 655.363281 719.4375 655.386719 719.335938 C 655.675781 715.769531 656.90625 715.101562 660.082031 709.269531 C 662.347656 705.78125 663.238281 702.914062 664.152344 702.914062 C 664.613281 702.914062 665.984375 703.613281 665.984375 704.746094 C 665.984375 706.257812 659.675781 716.183594 659.675781 717.746094 C 659.675781 717.890625 659.746094 717.941406 659.871094 717.941406 C 661.144531 717.941406 668.539062 711.273438 672.054688 706.019531 C 673.085938 704.480469 674.074219 702.8125 674.96875 702.8125 C 675.183594 702.8125 676.507812 702.960938 676.796875 703.34375 C 677.039062 703.683594 677.257812 703.804688 677.257812 704.09375 C 677.257812 704.285156 677.160156 704.5 676.941406 704.9375 C 676.53125 705.730469 669.40625 717.410156 666.539062 723.339844 C 669.933594 720.472656 673.691406 717.078125 676.847656 714.210938 C 677.015625 714.066406 677.207031 713.996094 677.375 713.996094 C 677.90625 713.996094 678.121094 714.957031 678.121094 716.28125 C 678.121094 716.6875 678.050781 717.027344 677.882812 717.171875 C 672.800781 721.070312 669.042969 724.472656 664.320312 729.550781 C 663.816406 730.082031 661.265625 735.910156 658.636719 736.246094 " fill-opacity="1" fill-rule="nonzero"/><path fill="#ff2774" d="M 714.484375 716.910156 C 716.316406 716.523438 719.109375 714.066406 722.023438 710.859375 C 722.335938 710.496094 722.554688 710.136719 722.746094 710.136719 C 723.132812 710.136719 723.277344 711.894531 723.371094 712.667969 C 723.394531 712.976562 723.566406 713.246094 723.566406 713.578125 C 723.566406 713.917969 723.421875 714.355469 722.964844 714.953125 C 721.132812 717.363281 715.136719 722.394531 712.609375 722.394531 C 710.390625 722.394531 709.164062 720.734375 709.164062 719.195312 C 709.164062 719.023438 709.1875 718.851562 709.210938 718.6875 C 709.835938 715.339844 719.617188 701.375 724.289062 694.871094 C 717.6875 701.679688 702.25 718.152344 698.902344 720.902344 C 698.617188 721.140625 698.277344 721.238281 697.867188 721.238281 C 696.664062 721.238281 695.195312 720.273438 695.195312 719.167969 L 695.195312 719.046875 C 695.339844 717.703125 703.429688 701.929688 707.476562 695.011719 C 702.492188 700.507812 691.175781 714.449219 685.34375 726.132812 C 685.054688 726.734375 684.695312 726.898438 684.261719 726.898438 C 683.902344 726.898438 683.46875 726.777344 682.914062 726.636719 C 681.664062 726.296875 680.792969 725.644531 680.792969 724.609375 C 680.792969 722.277344 702.5625 691.808594 709.742188 687.015625 C 710.34375 686.609375 710.800781 686.488281 711.117188 686.488281 C 711.644531 686.488281 711.859375 686.800781 712.054688 686.800781 C 712.125 686.800781 712.175781 686.777344 712.222656 686.730469 C 712.4375 686.464844 712.917969 686.347656 713.476562 686.347656 C 714.632812 686.347656 716.144531 686.875 716.144531 687.523438 C 716.144531 687.59375 716.125 687.648438 716.101562 687.714844 C 715.617188 689.039062 707.378906 703.101562 702.902344 711.777344 C 707.71875 705.976562 723.46875 689.085938 728.601562 686.03125 C 728.769531 685.90625 728.984375 685.859375 729.25 685.859375 C 729.683594 685.859375 730.210938 685.984375 730.960938 686.199219 C 731.800781 686.4375 733.128906 686.464844 733.511719 686.535156 C 733.992188 686.632812 734.453125 686.992188 734.453125 687.425781 C 734.453125 687.550781 734.402344 687.691406 734.308594 687.816406 C 731.152344 692.003906 717.253906 710.6875 714.484375 716.910156 " fill-opacity="1" fill-rule="nonzero"/><path fill="#ff2774" d="M 731.300781 710.496094 C 729.179688 712.6875 727.109375 716.351562 727.109375 717.792969 C 727.109375 718.183594 727.253906 718.398438 727.589844 718.398438 C 728.507812 718.398438 734 713.605469 735.828125 711.339844 C 736.914062 709.96875 738.550781 707.632812 739.824219 705.921875 C 738.191406 705.921875 735.03125 706.597656 731.300781 710.496094 M 746.929688 716.132812 C 746.929688 716.546875 746.90625 716.925781 746.789062 717.171875 C 746.136719 718.445312 742.453125 722.394531 739.222656 722.394531 C 736.71875 722.394531 735.636719 720.398438 735.636719 718.375 C 735.636719 717.582031 735.804688 716.785156 736.117188 716.085938 C 733.46875 719.535156 729.570312 722.296875 727.160156 722.296875 C 725.085938 722.296875 723.640625 720.710938 723.402344 719 C 723.328125 718.589844 723.304688 718.207031 723.304688 717.792969 C 723.304688 710.644531 732.359375 703.058594 737.707031 703.058594 C 739.5625 703.058594 740.597656 703.78125 740.863281 704.574219 C 741.65625 703.34375 742.039062 703.25 743.03125 703.25 C 744.039062 703.25 744.859375 703.632812 744.859375 704.5 C 744.859375 704.863281 744.738281 705.292969 744.523438 705.515625 C 744.160156 705.894531 740.136719 712.472656 739.34375 716.808594 C 739.296875 716.976562 739.273438 717.21875 739.273438 717.480469 C 739.273438 718.082031 739.441406 718.808594 740.042969 718.808594 C 741.96875 718.808594 745.367188 714.542969 745.75 714.207031 C 745.917969 714.066406 746.113281 713.992188 746.28125 713.992188 C 746.542969 713.992188 746.761719 714.179688 746.789062 714.445312 C 746.832031 714.761719 746.929688 715.488281 746.929688 716.132812 " fill-opacity="1" fill-rule="nonzero"/><path fill="#ff2774" d="M 760.765625 710.957031 C 760.429688 711.390625 760.019531 711.730469 759.398438 711.730469 C 758.359375 711.730469 757.808594 710.8125 757.808594 709.871094 C 757.808594 708.476562 758.746094 707.105469 759.589844 706.117188 L 759.539062 706.070312 C 758.289062 706.160156 751.761719 713.03125 750.558594 714.355469 C 748.75 716.328125 747.066406 718.421875 745.476562 720.566406 C 745.164062 720.996094 744.558594 721.601562 744.003906 721.601562 C 743.59375 721.601562 742.035156 720.996094 741.789062 720.761719 C 741.621094 720.664062 741.621094 720.523438 741.621094 720.375 C 741.621094 719.535156 742.535156 718.324219 743.066406 717.410156 C 745.136719 713.800781 747.257812 710.257812 749.375 706.71875 C 750.074219 705.558594 750.652344 704.359375 751.496094 703.300781 C 752.3125 702.261719 753.878906 701.929688 755.15625 701.929688 C 755.640625 701.929688 755.734375 702.457031 755.734375 702.867188 C 755.734375 703.996094 753.328125 707.296875 752.628906 708.433594 C 754.890625 705.875 758.648438 701.972656 762.308594 701.972656 C 763.585938 701.972656 764.574219 702.8125 764.574219 704.136719 C 764.574219 705.515625 761.707031 709.703125 760.765625 710.957031 " fill-opacity="1" fill-rule="nonzero"/><path fill="#ff2774" d="M 770.125 699.660156 C 770.101562 699.640625 766.488281 700.09375 765.960938 700.09375 L 765.742188 700.09375 C 765.066406 700.09375 763.742188 699.855469 763.742188 698.914062 C 763.742188 698.554688 764.347656 698.21875 764.515625 697.734375 C 764.753906 696.992188 766.730469 695.929688 767.523438 695.859375 C 768.5625 695.785156 769.59375 695.765625 770.628906 695.710938 C 772.894531 695.617188 770.535156 695.710938 772.800781 695.617188 C 773.835938 694.121094 774.871094 692.515625 776.097656 691.160156 C 776.386719 690.773438 776.4375 690.679688 776.945312 690.679688 C 777.328125 690.679688 777.6875 690.535156 778.074219 690.535156 C 778.675781 690.535156 778.675781 690.773438 779.0625 690.773438 C 779.351562 690.773438 779.617188 691.160156 779.617188 691.425781 C 779.617188 691.808594 777.542969 694.917969 777.183594 695.519531 C 777.496094 695.5 778.988281 695.375 779.566406 695.375 C 780.144531 695.375 780.699219 695.402344 780.890625 695.46875 C 781.46875 695.710938 781.640625 696.367188 782.167969 696.746094 C 782.40625 696.9375 782.578125 697.085938 782.578125 697.445312 C 782.578125 698.410156 781.375 698.796875 780.648438 698.867188 C 778.4375 699.085938 776.699219 699.324219 774.484375 699.449219 C 772.753906 702.117188 765.648438 714.257812 765.3125 716.664062 C 765.261719 717.027344 765.214844 717.339844 765.214844 717.605469 C 765.214844 718.546875 765.621094 718.785156 766.394531 718.785156 C 768.707031 718.785156 772.894531 713.96875 773.5 713.96875 C 774.171875 713.96875 774.125 715.703125 774.125 716.132812 C 774.125 717.050781 773.785156 717.605469 773.039062 718.25 C 771.425781 719.648438 768.394531 722.464844 765.621094 722.464844 C 765.382812 722.464844 765.167969 722.445312 764.945312 722.398438 C 762.492188 721.9375 761.214844 720.804688 761.214844 717.703125 C 761.265625 713.917969 767.960938 703.007812 770.125 699.660156 " fill-opacity="1" fill-rule="nonzero"/><path fill="#ff2774" d="M 790.574219 690.96875 C 790.671875 690.730469 790.8125 690.535156 791.03125 690.535156 C 792.019531 690.535156 792.597656 692.101562 792.597656 692.945312 C 792.597656 694.484375 791.609375 695.570312 790.574219 696.242188 C 789.898438 696.894531 784.410156 700.195312 783.132812 700.195312 C 782.746094 700.195312 782.578125 699.8125 782.578125 699.570312 C 782.578125 699.402344 782.628906 699.253906 782.695312 699.109375 C 783.472656 697.039062 785.15625 695.570312 787.132812 693.980469 C 789.152344 692.320312 790.234375 691.910156 790.574219 690.96875 M 783.742188 717.171875 C 782.054688 720.613281 777.863281 722.542969 775.242188 722.542969 C 773.074219 722.542969 770.859375 720.519531 770.859375 718.398438 C 770.859375 715.988281 776.15625 708.285156 776.15625 707.898438 C 776.15625 707.34375 775.167969 706.863281 775.167969 706.308594 C 775.167969 705.921875 778.902344 701.828125 780.972656 701.828125 C 781.769531 701.828125 782.753906 703.007812 782.753906 703.757812 C 782.753906 704.261719 777.722656 712.953125 777.023438 714.160156 C 776.445312 715.125 775.21875 716.855469 775.21875 718.011719 C 775.21875 718.6875 775.839844 718.832031 776.445312 718.832031 C 779.359375 718.832031 782.515625 713.96875 783.261719 713.96875 C 783.9375 713.96875 783.886719 715.703125 783.886719 716.132812 C 783.886719 716.46875 783.886719 716.855469 783.742188 717.171875 " fill-opacity="1" fill-rule="nonzero"/><path fill="#ff2774" d="M 802.511719 718.253906 C 800.753906 719.871094 797.984375 722.398438 795.121094 722.398438 C 793.195312 722.351562 791.074219 720.859375 791.074219 718.492188 C 791.074219 715.433594 793.699219 711.363281 795.722656 708.382812 C 795.964844 708.019531 796.925781 706.601562 796.996094 706.117188 L 796.949219 706.070312 C 795.699219 706.164062 789.171875 713.03125 787.964844 714.359375 C 786.160156 716.351562 784.523438 718.449219 782.933594 720.566406 C 782.59375 721 781.992188 721.601562 781.414062 721.601562 C 781.003906 721.601562 779.488281 721 779.199219 720.761719 C 779.03125 720.664062 779.03125 720.523438 779.03125 720.375 C 779.03125 719.578125 779.945312 718.304688 780.476562 717.414062 C 782.546875 713.800781 784.667969 710.261719 786.785156 706.722656 C 787.484375 705.5625 788.0625 704.359375 788.90625 703.300781 C 789.722656 702.265625 791.289062 701.929688 792.566406 701.929688 C 793.09375 701.929688 793.144531 702.460938 793.144531 702.871094 C 793.144531 703.996094 790.734375 707.296875 790.039062 708.433594 C 792.351562 705.875 796.058594 701.972656 799.765625 701.972656 C 800.996094 701.972656 802.03125 702.816406 802.03125 704.140625 C 802.03125 705.613281 799.117188 709.511719 798.175781 710.957031 C 797.382812 712.183594 794.683594 716.1875 794.683594 717.847656 C 794.683594 718.617188 795.429688 718.90625 796.132812 718.90625 C 798.417969 718.90625 802.320312 713.96875 803.015625 713.96875 C 803.691406 713.96875 803.644531 715.703125 803.644531 716.136719 C 803.644531 716.953125 803.355469 717.75 802.511719 718.253906 " fill-opacity="1" fill-rule="nonzero"/><path fill="#ff2774" d="M 813.75 707.539062 C 812.976562 707.539062 812.878906 707.152344 812.878906 706.449219 C 812.878906 706.210938 812.929688 706.019531 812.976562 705.824219 C 812.28125 706.070312 811.628906 706.40625 811 706.769531 C 810.207031 707.199219 806.90625 709.367188 806.90625 710.257812 C 806.90625 710.449219 807.292969 710.449219 807.390625 710.449219 C 808.6875 710.449219 809.773438 709.660156 811 709.660156 C 811.148438 709.660156 811.339844 709.660156 811.484375 709.699219 C 811.894531 709.921875 812.519531 710.910156 812.519531 711.292969 C 812.519531 711.703125 811.988281 712.109375 811.675781 712.375 C 810.976562 712.953125 810.160156 713.007812 809.410156 713.414062 C 808.425781 713.96875 804.332031 716.226562 804.332031 717.316406 C 804.332031 719 806.257812 719.195312 807.535156 719.195312 C 811.050781 719.195312 814.398438 715.867188 816.609375 714.207031 C 816.757812 714.109375 816.972656 713.96875 817.167969 713.96875 C 817.796875 713.96875 817.796875 715.433594 817.796875 715.867188 C 817.796875 716.28125 817.796875 716.761719 817.648438 717.171875 C 817.503906 717.554688 817.019531 718.011719 816.660156 718.304688 C 814.347656 720.179688 810.808594 722.492188 806.90625 722.492188 C 804.042969 722.492188 800.28125 721.601562 800.28125 718.058594 C 800.28125 715.386719 802.621094 713.871094 804.886719 713.027344 C 803.5625 712.421875 803.441406 711.488281 803.441406 710.210938 C 803.441406 705.464844 811.4375 702.070312 815.53125 702.070312 C 816.371094 702.070312 817.964844 702.5 817.964844 703.539062 C 817.964844 705.683594 815.890625 707.539062 813.75 707.539062 " fill-opacity="1" fill-rule="nonzero"/><path fill="#ff2774" d="M 834.496094 705.515625 C 831.847656 707.582031 824.042969 713.605469 821.398438 718.15625 C 823.707031 717.457031 833.585938 716.085938 834.714844 714.90625 C 834.882812 714.738281 835.054688 714.667969 835.246094 714.667969 C 835.460938 714.667969 835.703125 714.761719 835.992188 714.957031 C 836.234375 715.101562 836.277344 716.039062 836.277344 716.980469 C 836.277344 717.703125 835.4375 719 834.8125 719.289062 C 833.632812 719.816406 821.296875 721.84375 819.179688 722.105469 C 818.722656 722.183594 818.359375 722.203125 818.050781 722.203125 C 816.847656 722.203125 816.558594 721.820312 816.3125 721.601562 C 816.070312 721.386719 815.953125 720.492188 815.953125 719.816406 C 815.953125 719.480469 815.976562 719.199219 816.050781 719.050781 C 819.375 712.714844 825.273438 709.128906 828.644531 706.160156 C 825.179688 706.40625 821.179688 706.601562 819.515625 706.910156 L 819.445312 706.910156 C 819.179688 706.910156 818.964844 706.671875 818.964844 706.117188 C 818.964844 705.78125 819.855469 703.660156 821.589844 703.15625 C 824.242188 702.359375 826.070312 703.226562 833.367188 702.117188 C 833.679688 702.070312 834.425781 701.640625 835.097656 701.640625 C 835.773438 701.640625 836.496094 702.335938 836.496094 703.566406 C 836.496094 704.019531 836.351562 704.480469 835.992188 704.839844 C 835.75 705.082031 835.390625 705.277344 834.496094 705.515625 " fill-opacity="1" fill-rule="nonzero"/><path fill="#ff4588" d="M 340.570312 212.054688 C 340.570312 212.054688 353.316406 183.894531 337.824219 162.304688 C 329.867188 151.21875 318.550781 151.058594 315.765625 157.808594 C 307.738281 177.273438 341.519531 173.519531 340.394531 211.9375 " fill-opacity="1" fill-rule="nonzero"/><path fill="#ff4588" d="M 347.117188 202.464844 C 347.117188 202.464844 370.65625 183.21875 366.441406 157.421875 C 364.273438 144.175781 354.367188 139.089844 348.964844 143.820312 C 333.382812 157.464844 364.792969 168.921875 347.015625 202.285156 " fill-opacity="1" fill-rule="nonzero"/><path fill="#ff4588" d="M 325.121094 234.546875 C 325.121094 234.546875 336.671875 201.339844 316.902344 178.46875 C 306.75 166.722656 293.910156 167.707031 291.449219 175.640625 C 284.351562 198.519531 322.238281 190.796875 324.910156 234.4375 " fill-opacity="1" fill-rule="nonzero"/><path fill="#ff4588" d="M 357.886719 355.308594 C 359.0625 354.816406 359.851562 353.617188 359.757812 352.273438 C 359.65625 350.839844 356.992188 316.945312 330.8125 296.058594 C 313.613281 282.339844 290.453125 277.625 261.96875 282.046875 C 233.796875 286.417969 207.53125 291.625 184.355469 296.222656 C 135.601562 305.890625 97.09375 313.523438 78.179688 305.742188 C 76.621094 305.097656 74.839844 305.84375 74.191406 307.398438 C 73.550781 308.957031 74.292969 310.742188 75.851562 311.386719 C 96.472656 319.878906 133.832031 312.46875 185.542969 302.214844 C 208.664062 297.632812 234.863281 292.433594 262.910156 288.082031 C 289.605469 283.9375 311.15625 288.21875 326.957031 300.800781 C 351.035156 319.96875 353.640625 352.382812 353.664062 352.703125 C 353.785156 354.386719 355.246094 355.652344 356.921875 355.535156 C 357.261719 355.511719 357.585938 355.429688 357.886719 355.308594 " fill-opacity="1" fill-rule="nonzero"/><path fill="#ff4588" d="M 326.195312 315.984375 C 326.195312 315.984375 299.707031 303.035156 279.824219 315.867188 C 259.945312 328.703125 269.578125 337.925781 273.070312 339.363281 C 277.019531 340.988281 291.453125 340.800781 300.496094 328.761719 C 309.542969 316.71875 323.492188 315.457031 326.195312 315.984375 " fill-opacity="1" fill-rule="nonzero"/><path fill="#ff4588" d="M 339.734375 340.539062 C 339.734375 340.539062 318.003906 328.085938 299.558594 337.425781 C 281.117188 346.761719 291.570312 358.949219 300.765625 357.1875 C 309.957031 355.429688 332.007812 340.859375 339.734375 340.539062 " fill-opacity="1" fill-rule="nonzero"/><path fill="#ff4588" d="M 234.542969 297.515625 C 234.542969 297.515625 200.296875 302.6875 196.511719 325.359375 C 192.722656 348.03125 215.601562 341.390625 219.003906 331.699219 C 221.152344 325.585938 226.789062 310.675781 231.3125 304.65625 C 235.832031 298.632812 238.210938 296.402344 234.542969 297.515625 " fill-opacity="1" fill-rule="nonzero"/><path fill="#ff4588" d="M 195.335938 312.613281 C 195.335938 312.613281 198.390625 303.066406 190.433594 306.796875 C 182.476562 310.527344 162.152344 322.304688 162.121094 335.136719 C 162.09375 347.96875 179.507812 346.089844 182.589844 338.601562 C 185.675781 331.113281 192.226562 318.042969 195.335938 312.613281 " fill-opacity="1" fill-rule="nonzero"/><path fill="#ff4588" d="M 163.882812 314.550781 C 163.882812 314.550781 140.152344 316.167969 129.171875 331.496094 C 118.191406 346.828125 138.570312 354.054688 145.179688 345.09375 C 151.785156 336.136719 156.71875 319.191406 163.882812 314.550781 " fill-opacity="1" fill-rule="nonzero"/><path fill="#ff4588" d="M 123.125 319.957031 C 123.125 319.957031 102.039062 317.988281 90.699219 323.539062 C 79.367188 329.089844 79.984375 337.519531 84.300781 341.925781 C 88.621094 346.328125 95.253906 349.355469 103.449219 342.214844 C 111.640625 335.082031 123.125 319.957031 123.125 319.957031 " fill-opacity="1" fill-rule="nonzero"/><path fill="#ff4588" d="M 94.578125 311.996094 C 94.578125 311.996094 62.128906 318.488281 52.140625 309.414062 C 42.160156 300.339844 45.296875 287.039062 60.480469 287.742188 C 75.664062 288.445312 84.359375 311.292969 100.304688 310.851562 C 116.25 310.410156 94.578125 311.996094 94.578125 311.996094 " fill-opacity="1" fill-rule="nonzero"/><path fill="#ff4588" d="M 126.265625 301.691406 C 126.265625 301.691406 99.277344 308.386719 88.121094 296.492188 C 76.957031 284.597656 91.054688 273.761719 100.777344 279.222656 C 110.492188 284.6875 126.265625 301.691406 126.265625 301.691406 " fill-opacity="1" fill-rule="nonzero"/><path fill="#ff4588" d="M 162.535156 294.433594 C 162.535156 294.433594 138.335938 302.863281 124.769531 291.144531 C 111.199219 279.429688 124.09375 268.679688 132.285156 271.46875 C 140.480469 274.257812 154.339844 296.605469 162.535156 294.433594 " fill-opacity="1" fill-rule="nonzero"/><path fill="#ff4588" d="M 195.746094 286.796875 C 195.746094 286.796875 166.230469 295.375 154.691406 281.574219 C 143.148438 267.769531 151.285156 261.484375 162.269531 261.042969 C 173.25 260.605469 184.441406 289.441406 195.746094 286.796875 " fill-opacity="1" fill-rule="nonzero"/><path fill="#ff4588" d="M 230.285156 277.371094 C 230.285156 277.371094 201.828125 285.503906 188.402344 274.140625 C 174.980469 262.773438 178.074219 253.34375 186.085938 250.707031 C 204.996094 244.480469 216.800781 276.785156 230.285156 277.371094 " fill-opacity="1" fill-rule="nonzero"/><path fill="#ff4588" d="M 263.996094 269.941406 C 263.996094 269.941406 231.429688 278.132812 215.832031 258.578125 C 200.242188 239.019531 228.285156 231.882812 235.980469 239.429688 C 243.671875 246.976562 256.300781 267.355469 263.996094 269.941406 " fill-opacity="1" fill-rule="nonzero"/><path fill="#ff4588" d="M 297.484375 273.277344 C 297.484375 273.277344 257.0625 270.234375 249.46875 242.414062 C 243.183594 219.390625 271.113281 218.921875 276.25 231.253906 C 280.667969 241.851562 287.617188 267.460938 297.484375 273.277344 " fill-opacity="1" fill-rule="nonzero"/><path fill="#ff4588" d="M 316.976562 278.875 C 316.976562 278.875 286.261719 256.429688 284.617188 233.125 C 282.96875 209.824219 308.375 207.203125 314.402344 227.714844 C 316.3125 234.207031 304.207031 256.285156 316.976562 278.875 " fill-opacity="1" fill-rule="nonzero"/><path fill="#ff4588" d="M 346.339844 296.835938 C 346.339844 296.835938 328.699219 284.230469 330.160156 251.054688 C 331.070312 230.410156 348.015625 230.378906 353.242188 233.992188 C 358.46875 237.605469 362.226562 252.582031 353.535156 269.4375 C 344.84375 286.296875 344.402344 295.164062 346.339844 296.835938 " fill-opacity="1" fill-rule="nonzero"/><path fill="#ff4588" d="M 356.0625 312.226562 C 356.0625 312.226562 349.863281 290.40625 365.988281 267.558594 C 382.109375 244.710938 400.667969 258.480469 396.882812 271.230469 C 393.09375 283.972656 365.578125 293.371094 356.0625 312.226562 " fill-opacity="1" fill-rule="nonzero"/><path fill="#ff4588" d="M 362.644531 326.027344 C 362.644531 326.027344 372.066406 296.046875 402.699219 291.140625 C 433.324219 286.234375 428.101562 317.367188 407.339844 318.15625 C 386.574219 318.949219 372.242188 318.304688 362.644531 326.027344 " fill-opacity="1" fill-rule="nonzero"/><path fill="#ff4588" d="M 362.785156 341.269531 C 362.785156 341.269531 378.351562 324.03125 407.542969 332.546875 C 436.734375 341.0625 409.71875 360.59375 399.9375 355.980469 C 390.15625 351.371094 370.980469 339.097656 362.785156 341.269531 " fill-opacity="1" fill-rule="nonzero"/><path fill="#ff4588" d="M 285.34375 295.371094 C 285.34375 295.371094 254.125 293.902344 238.066406 310.9375 C 222.003906 327.96875 242.703125 342.914062 256.242188 327.761719 C 269.777344 312.609375 274.011719 300.921875 285.34375 295.371094 " fill-opacity="1" fill-rule="nonzero"/><path fill="#ff4588" d="M 338.695312 313.402344 C 336.992188 311.171875 297.355469 258.449219 328.722656 223.515625 C 363.984375 184.25 357.324219 163.144531 357.25 162.933594 L 362.003906 161.226562 C 362.347656 162.179688 370.085938 185.011719 332.480469 226.886719 C 303.90625 258.707031 342.316406 309.820312 342.707031 310.335938 Z M 338.695312 313.402344 " fill-opacity="1" fill-rule="nonzero"/><path fill="#ff4588" d="M 446.230469 244.167969 C 446.230469 244.167969 441.011719 209.140625 430.121094 179.996094 C 421.703125 157.484375 436.242188 146.5 445.09375 146.246094 C 453.933594 145.988281 465.796875 158.292969 460.515625 177.183594 C 452.800781 204.796875 446.230469 244.167969 446.230469 244.167969 " fill-opacity="1" fill-rule="nonzero"/><path fill="#ff4588" d="M 453.269531 245.011719 C 453.269531 245.011719 461.847656 215.988281 463.917969 189.476562 C 465.511719 169 480.734375 165.730469 487.683594 168.722656 C 494.625 171.710938 499.382812 185.519531 488.484375 198.253906 C 472.554688 216.871094 453.269531 245.011719 453.269531 245.011719 " fill-opacity="1" fill-rule="nonzero"/><path fill="#ff4588" d="M 459.972656 252.070312 C 459.972656 252.070312 469.511719 226.859375 486.839844 205.636719 C 498.824219 190.96875 510.460938 192.886719 514.980469 198.203125 C 519.5 203.515625 518.519531 219.042969 503.558594 222.945312 C 479.394531 229.242188 459.972656 252.070312 459.972656 252.070312 " fill-opacity="1" fill-rule="nonzero"/><path fill="#ff4588" d="M 463.0625 256.207031 C 463.0625 256.207031 479.828125 239.660156 501.320312 229.117188 C 516.175781 221.832031 524.714844 227.59375 526.371094 233.464844 C 528.023438 239.332031 521.589844 251.304688 508.285156 248.953125 C 486.804688 245.148438 463.0625 256.207031 463.0625 256.207031 " fill-opacity="1" fill-rule="nonzero"/><path fill="#ff4588" d="M 438.714844 245.011719 C 438.714844 245.011719 430.136719 215.988281 428.066406 189.476562 C 426.476562 169 411.25 165.730469 404.300781 168.722656 C 397.359375 171.710938 392.601562 185.519531 403.503906 198.253906 C 419.429688 216.871094 438.714844 245.011719 438.714844 245.011719 " fill-opacity="1" fill-rule="nonzero"/><path fill="#ff4588" d="M 432.007812 252.070312 C 432.007812 252.070312 422.46875 226.859375 405.136719 205.636719 C 393.160156 190.96875 381.523438 192.886719 377.003906 198.203125 C 372.484375 203.515625 373.464844 219.042969 388.425781 222.945312 C 412.589844 229.242188 432.007812 252.070312 432.007812 252.070312 " fill-opacity="1" fill-rule="nonzero"/><path fill="#ff4588" d="M 428.917969 256.207031 C 428.917969 256.207031 412.160156 239.660156 390.667969 229.117188 C 375.808594 221.832031 367.265625 227.59375 365.613281 233.464844 C 363.964844 239.332031 370.394531 251.304688 383.695312 248.953125 C 405.183594 245.148438 428.917969 256.207031 428.917969 256.207031 " fill-opacity="1" fill-rule="nonzero"/><path fill="#ff4588" d="M 445.386719 251.105469 C 455.226562 251.105469 463.203125 259.085938 463.203125 268.925781 C 463.203125 278.765625 455.226562 286.738281 445.386719 286.738281 C 435.550781 286.738281 427.570312 278.765625 427.570312 268.925781 C 427.570312 259.085938 435.550781 251.105469 445.386719 251.105469 " fill-opacity="1" fill-rule="nonzero"/><path fill="#ff4588" d="M 445.386719 295.957031 C 452.683594 295.957031 458.605469 301.878906 458.605469 309.175781 C 458.605469 316.472656 452.683594 322.390625 445.386719 322.390625 C 438.089844 322.390625 432.167969 316.472656 432.167969 309.175781 C 432.167969 301.878906 438.089844 295.957031 445.386719 295.957031 " fill-opacity="1" fill-rule="nonzero"/><path fill="#ff4588" d="M 445.386719 333.335938 C 450.78125 333.335938 455.152344 337.707031 455.152344 343.105469 C 455.152344 348.496094 450.78125 352.867188 445.386719 352.867188 C 439.996094 352.867188 435.621094 348.496094 435.621094 343.105469 C 435.621094 337.707031 439.996094 333.335938 445.386719 333.335938 " fill-opacity="1" fill-rule="nonzero"/><path fill="#ff4588" d="M 827.390625 234.542969 C 838.566406 228.5 852.523438 232.660156 858.566406 243.835938 C 864.605469 255.007812 860.449219 268.964844 849.277344 275.007812 C 838.101562 281.050781 824.140625 276.886719 818.101562 265.714844 C 812.058594 254.542969 816.21875 240.585938 827.390625 234.542969 " fill-opacity="1" fill-rule="nonzero"/><path fill="#ff4588" d="M 777.761719 227.390625 C 785.585938 223.160156 795.355469 226.074219 799.582031 233.894531 C 803.816406 241.714844 800.902344 251.488281 793.078125 255.714844 C 785.261719 259.945312 775.488281 257.03125 771.261719 249.210938 C 767.027344 241.390625 769.941406 231.621094 777.761719 227.390625 " fill-opacity="1" fill-rule="nonzero"/><path fill="#ff4588" d="M 745.546875 201.667969 C 751.136719 198.644531 758.109375 200.722656 761.132812 206.3125 C 764.15625 211.898438 762.074219 218.875 756.488281 221.898438 C 750.898438 224.917969 743.921875 222.835938 740.902344 217.253906 C 737.882812 211.664062 739.960938 204.6875 745.546875 201.667969 " fill-opacity="1" fill-rule="nonzero"/><path fill="#ff4588" d="M 69.660156 234.542969 C 58.484375 228.5 44.527344 232.660156 38.488281 243.835938 C 32.445312 255.007812 36.601562 268.964844 47.777344 275.007812 C 58.953125 281.050781 72.90625 276.886719 78.949219 265.714844 C 84.992188 254.542969 80.832031 240.585938 69.660156 234.542969 " fill-opacity="1" fill-rule="nonzero"/><path fill="#ff4588" d="M 119.289062 227.390625 C 111.46875 223.160156 101.699219 226.074219 97.46875 233.894531 C 93.238281 241.714844 96.152344 251.488281 103.972656 255.714844 C 111.792969 259.945312 121.5625 257.03125 125.792969 249.210938 C 130.023438 241.390625 127.113281 231.621094 119.289062 227.390625 " fill-opacity="1" fill-rule="nonzero"/><path fill="#ff4588" d="M 274.113281 185.878906 C 266.289062 181.648438 256.519531 184.5625 252.289062 192.382812 C 248.058594 200.203125 250.972656 209.976562 258.792969 214.207031 C 266.613281 218.433594 276.382812 215.523438 280.613281 207.699219 C 284.84375 199.878906 281.933594 190.109375 274.113281 185.878906 " fill-opacity="1" fill-rule="nonzero"/><path fill="#ff4588" d="M 151.503906 201.667969 C 145.917969 198.644531 138.941406 200.722656 135.917969 206.3125 C 132.898438 211.898438 134.980469 218.875 140.5625 221.898438 C 146.152344 224.917969 153.128906 222.835938 156.148438 217.253906 C 159.171875 211.664062 157.089844 204.6875 151.503906 201.667969 " fill-opacity="1" fill-rule="nonzero"/><path fill="#ff4588" d="M 389.347656 137.71875 C 383.761719 134.695312 376.78125 136.777344 373.761719 142.363281 C 370.738281 147.949219 372.820312 154.929688 378.40625 157.949219 C 383.992188 160.96875 390.972656 158.890625 393.988281 153.304688 C 397.011719 147.714844 394.933594 140.738281 389.347656 137.71875 " fill-opacity="1" fill-rule="nonzero"/><path fill="#ff4588" d="M 551.367188 212.054688 C 551.367188 212.054688 538.621094 183.894531 554.113281 162.304688 C 562.066406 151.21875 573.386719 151.058594 576.175781 157.808594 C 584.199219 177.273438 550.421875 173.519531 551.542969 211.9375 " fill-opacity="1" fill-rule="nonzero"/><path fill="#ff4588" d="M 544.820312 202.464844 C 544.820312 202.464844 521.277344 183.21875 525.496094 157.421875 C 527.660156 144.175781 537.570312 139.089844 542.96875 143.820312 C 558.554688 157.464844 527.144531 168.921875 544.921875 202.285156 " fill-opacity="1" fill-rule="nonzero"/><path fill="#ff4588" d="M 566.816406 234.546875 C 566.816406 234.546875 555.265625 201.339844 575.03125 178.46875 C 585.183594 166.722656 598.027344 167.707031 600.488281 175.640625 C 607.585938 198.519531 569.695312 190.796875 567.027344 234.4375 " fill-opacity="1" fill-rule="nonzero"/><path fill="#ff4588" d="M 534.046875 355.308594 C 532.871094 354.816406 532.082031 353.617188 532.179688 352.273438 C 532.28125 350.839844 534.945312 316.945312 561.125 296.058594 C 578.324219 282.339844 601.484375 277.625 629.964844 282.046875 C 658.136719 286.417969 684.402344 291.625 707.578125 296.222656 C 756.335938 305.890625 794.839844 313.523438 813.757812 305.742188 C 815.316406 305.097656 817.101562 305.84375 817.746094 307.398438 C 818.382812 308.957031 817.640625 310.742188 816.082031 311.386719 C 795.460938 319.878906 758.105469 312.46875 706.390625 302.214844 C 683.273438 297.632812 657.070312 292.433594 629.027344 288.082031 C 602.328125 283.9375 580.78125 288.21875 564.980469 300.800781 C 540.898438 319.96875 538.296875 352.382812 538.273438 352.703125 C 538.152344 354.386719 536.6875 355.652344 535.011719 355.535156 C 534.671875 355.511719 534.347656 355.429688 534.046875 355.308594 " fill-opacity="1" fill-rule="nonzero"/><path fill="#ff4588" d="M 552.199219 340.539062 C 552.199219 340.539062 573.933594 328.085938 592.378906 337.425781 C 610.816406 346.761719 600.367188 358.949219 591.171875 357.1875 C 581.980469 355.429688 559.925781 340.859375 552.199219 340.539062 " fill-opacity="1" fill-rule="nonzero"/><path fill="#ff4588" d="M 565.742188 315.984375 C 565.742188 315.984375 592.230469 303.035156 612.109375 315.867188 C 631.992188 328.703125 622.359375 337.925781 618.867188 339.363281 C 614.917969 340.988281 600.480469 340.800781 591.441406 328.761719 C 582.390625 316.71875 568.441406 315.457031 565.742188 315.984375 " fill-opacity="1" fill-rule="nonzero"/><path fill="#ff4588" d="M 657.394531 297.515625 C 657.394531 297.515625 691.640625 302.6875 695.421875 325.359375 C 699.210938 348.03125 676.335938 341.390625 672.929688 331.699219 C 670.785156 325.585938 665.148438 310.675781 660.625 304.65625 C 656.105469 298.632812 653.726562 296.402344 657.394531 297.515625 " fill-opacity="1" fill-rule="nonzero"/><path fill="#ff4588" d="M 696.601562 312.613281 C 696.601562 312.613281 693.546875 303.066406 701.503906 306.796875 C 709.464844 310.527344 729.785156 322.304688 729.816406 335.136719 C 729.84375 347.96875 712.433594 346.089844 709.34375 338.601562 C 706.261719 331.113281 699.710938 318.042969 696.601562 312.613281 " fill-opacity="1" fill-rule="nonzero"/><path fill="#ff4588" d="M 728.054688 314.550781 C 728.054688 314.550781 751.78125 316.167969 762.761719 331.496094 C 773.746094 346.828125 753.367188 354.054688 746.761719 345.09375 C 740.148438 336.136719 735.214844 319.191406 728.054688 314.550781 " fill-opacity="1" fill-rule="nonzero"/><path fill="#ff4588" d="M 768.816406 319.957031 C 768.816406 319.957031 789.898438 317.988281 801.238281 323.539062 C 812.570312 329.089844 811.953125 337.519531 807.636719 341.925781 C 803.316406 346.328125 796.683594 349.355469 788.488281 342.214844 C 780.296875 335.082031 768.816406 319.957031 768.816406 319.957031 " fill-opacity="1" fill-rule="nonzero"/><path fill="#ff4588" d="M 797.359375 311.996094 C 797.359375 311.996094 829.808594 318.488281 839.796875 309.414062 C 849.773438 300.339844 846.636719 287.039062 831.457031 287.742188 C 816.273438 288.445312 807.578125 311.292969 791.632812 310.851562 C 775.683594 310.410156 797.359375 311.996094 797.359375 311.996094 " fill-opacity="1" fill-rule="nonzero"/><path fill="#ff4588" d="M 765.667969 301.691406 C 765.667969 301.691406 792.65625 308.386719 803.816406 296.492188 C 814.980469 284.597656 800.882812 273.761719 791.160156 279.222656 C 781.441406 284.6875 765.667969 301.691406 765.667969 301.691406 " fill-opacity="1" fill-rule="nonzero"/><path fill="#ff4588" d="M 729.402344 294.433594 C 729.402344 294.433594 753.597656 302.863281 767.167969 291.144531 C 780.738281 279.429688 767.84375 268.679688 759.652344 271.46875 C 751.460938 274.257812 737.597656 296.605469 729.402344 294.433594 " fill-opacity="1" fill-rule="nonzero"/><path fill="#ff4588" d="M 696.191406 286.796875 C 696.191406 286.796875 725.707031 295.375 737.242188 281.574219 C 748.785156 267.769531 740.652344 261.484375 729.667969 261.042969 C 718.6875 260.605469 707.496094 289.441406 696.191406 286.796875 " fill-opacity="1" fill-rule="nonzero"/><path fill="#ff4588" d="M 661.652344 277.371094 C 661.652344 277.371094 690.109375 285.503906 703.527344 274.140625 C 716.953125 262.773438 713.863281 253.34375 705.851562 250.707031 C 686.9375 244.480469 675.132812 276.785156 661.652344 277.371094 " fill-opacity="1" fill-rule="nonzero"/><path fill="#ff4588" d="M 627.941406 269.941406 C 627.941406 269.941406 660.511719 278.132812 676.105469 258.578125 C 691.699219 239.019531 663.652344 231.882812 655.957031 239.429688 C 648.265625 246.976562 635.636719 267.355469 627.941406 269.941406 " fill-opacity="1" fill-rule="nonzero"/><path fill="#ff4588" d="M 594.453125 273.277344 C 594.453125 273.277344 634.871094 270.234375 642.464844 242.414062 C 648.753906 219.390625 620.824219 218.921875 615.6875 231.253906 C 611.269531 241.851562 604.320312 267.460938 594.453125 273.277344 " fill-opacity="1" fill-rule="nonzero"/><path fill="#ff4588" d="M 574.960938 278.875 C 574.960938 278.875 605.671875 256.429688 607.320312 233.125 C 608.96875 209.824219 583.5625 207.203125 577.535156 227.714844 C 575.625 234.207031 587.726562 256.285156 574.960938 278.875 " fill-opacity="1" fill-rule="nonzero"/><path fill="#ff4588" d="M 545.59375 296.835938 C 545.59375 296.835938 563.238281 284.230469 561.777344 251.054688 C 560.867188 230.410156 543.921875 230.378906 538.691406 233.992188 C 533.464844 237.605469 529.710938 252.582031 538.402344 269.4375 C 547.09375 286.296875 547.535156 295.164062 545.59375 296.835938 " fill-opacity="1" fill-rule="nonzero"/><path fill="#ff4588" d="M 535.875 312.226562 C 535.875 312.226562 542.070312 290.40625 525.949219 267.558594 C 509.828125 244.710938 491.265625 258.480469 495.054688 271.230469 C 498.84375 283.972656 526.359375 293.371094 535.875 312.226562 " fill-opacity="1" fill-rule="nonzero"/><path fill="#ff4588" d="M 529.292969 326.027344 C 529.292969 326.027344 519.871094 296.046875 489.238281 291.140625 C 458.609375 286.234375 463.835938 317.367188 484.597656 318.15625 C 505.363281 318.949219 519.691406 318.304688 529.292969 326.027344 " fill-opacity="1" fill-rule="nonzero"/><path fill="#ff4588" d="M 529.148438 341.269531 C 529.148438 341.269531 513.582031 324.03125 484.390625 332.546875 C 455.203125 341.0625 482.21875 360.59375 491.996094 355.980469 C 501.777344 351.371094 520.953125 339.097656 529.148438 341.269531 " fill-opacity="1" fill-rule="nonzero"/><path fill="#ff4588" d="M 606.589844 295.371094 C 606.589844 295.371094 637.808594 293.902344 653.871094 310.9375 C 669.933594 327.96875 649.230469 342.914062 635.695312 327.761719 C 622.15625 312.609375 617.925781 300.921875 606.589844 295.371094 " fill-opacity="1" fill-rule="nonzero"/><path fill="#ff4588" d="M 553.238281 313.402344 C 554.945312 311.171875 594.582031 258.449219 563.210938 223.515625 C 527.953125 184.25 534.609375 163.144531 534.683594 162.933594 L 529.933594 161.226562 C 529.585938 162.179688 521.847656 185.011719 559.453125 226.886719 C 588.027344 258.707031 549.621094 309.820312 549.230469 310.335938 Z M 553.238281 313.402344 " fill-opacity="1" fill-rule="nonzero"/><path fill="#ff4588" d="M 617.824219 185.878906 C 625.644531 181.648438 635.417969 184.5625 639.644531 192.382812 C 643.878906 200.203125 640.964844 209.976562 633.140625 214.207031 C 625.320312 218.433594 615.550781 215.523438 611.320312 207.699219 C 607.09375 199.878906 610 190.109375 617.824219 185.878906 " fill-opacity="1" fill-rule="nonzero"/><path fill="#ff4588" d="M 502.589844 137.71875 C 508.175781 134.695312 515.152344 136.777344 518.175781 142.363281 C 521.195312 147.949219 519.113281 154.929688 513.527344 157.949219 C 507.941406 160.96875 500.964844 158.890625 497.945312 153.304688 C 494.921875 147.714844 497.003906 140.738281 502.589844 137.71875 " fill-opacity="1" fill-rule="nonzero"/><path fill="#ff4588" d="M 75.007812 561.234375 C 75.007812 567.527344 75.007812 572.664062 75.3125 575.355469 C 75.542969 577.269531 75.773438 578.496094 77.769531 578.804688 C 78.765625 578.957031 80.222656 579.113281 80.835938 579.113281 C 81.21875 579.113281 81.375 579.421875 81.375 579.652344 C 81.375 579.957031 81.066406 580.1875 80.300781 580.1875 C 76.539062 580.1875 72.167969 579.957031 71.859375 579.957031 C 71.476562 579.957031 67.257812 580.1875 65.1875 580.1875 C 64.496094 580.1875 64.113281 580.03125 64.113281 579.652344 C 64.113281 579.421875 64.265625 579.113281 64.648438 579.113281 C 65.261719 579.113281 66.105469 578.957031 66.71875 578.804688 C 68.023438 578.496094 68.253906 577.269531 68.484375 575.355469 C 68.789062 572.664062 68.867188 567.527344 68.867188 561.234375 L 68.867188 549.726562 C 68.867188 539.601562 68.867188 537.757812 68.714844 535.683594 C 68.5625 533.460938 68.023438 532.460938 66.566406 532.152344 C 65.800781 532.003906 64.953125 531.925781 64.496094 531.925781 C 64.1875 531.925781 63.957031 531.617188 63.957031 531.386719 C 63.957031 531.007812 64.265625 530.851562 65.03125 530.851562 C 67.257812 530.851562 71.476562 531.007812 71.859375 531.007812 C 72.167969 531.007812 76.539062 530.851562 78.609375 530.851562 C 79.378906 530.851562 79.6875 531.007812 79.6875 531.386719 C 79.6875 531.617188 79.378906 531.925781 79.148438 531.925781 C 78.6875 531.925781 78.230469 531.925781 77.460938 532.078125 C 75.617188 532.460938 75.238281 533.382812 75.082031 535.683594 C 75.007812 537.757812 75.007812 539.601562 75.007812 549.726562 Z M 75.007812 561.234375 " fill-opacity="1" fill-rule="nonzero"/><path fill="#ff4588" d="M 100.015625 571.289062 C 100.167969 576.65625 100.78125 578.269531 102.625 578.730469 C 103.851562 579.039062 105.382812 579.113281 105.996094 579.113281 C 106.304688 579.113281 106.535156 579.34375 106.535156 579.652344 C 106.535156 580.035156 106.074219 580.1875 105.308594 580.1875 C 101.472656 580.1875 98.789062 579.957031 98.171875 579.957031 C 97.558594 579.957031 94.71875 580.1875 91.652344 580.1875 C 90.960938 580.1875 90.578125 580.113281 90.578125 579.652344 C 90.578125 579.34375 90.804688 579.113281 91.113281 579.113281 C 91.652344 579.113281 92.878906 579.039062 93.878906 578.730469 C 95.566406 578.269531 95.792969 576.503906 95.792969 570.597656 L 95.792969 533.230469 C 95.792969 530.621094 96.179688 529.933594 96.714844 529.933594 C 97.480469 529.933594 98.632812 531.238281 99.324219 531.925781 C 100.398438 533 110.21875 543.4375 120.652344 554.179688 C 127.328125 561.082031 134.542969 568.835938 136.613281 570.984375 L 135.921875 538.296875 C 135.847656 534.078125 135.460938 532.617188 133.390625 532.234375 C 132.160156 532.003906 130.628906 531.925781 130.089844 531.925781 C 129.632812 531.925781 129.554688 531.546875 129.554688 531.316406 C 129.554688 530.929688 130.089844 530.851562 130.859375 530.851562 C 133.925781 530.851562 137.148438 531.007812 137.917969 531.007812 C 138.683594 531.007812 140.90625 530.851562 143.671875 530.851562 C 144.363281 530.851562 144.898438 530.929688 144.898438 531.316406 C 144.898438 531.546875 144.59375 531.925781 144.128906 531.925781 C 143.824219 531.925781 143.285156 531.925781 142.519531 532.082031 C 140.292969 532.542969 140.140625 533.84375 140.140625 537.757812 L 139.988281 575.96875 C 139.988281 580.261719 139.910156 580.648438 139.449219 580.648438 C 138.761719 580.648438 138.070312 580.113281 134.308594 576.65625 C 133.621094 576.042969 123.875 566.453125 116.742188 559.011719 C 108.914062 550.800781 101.316406 542.824219 99.246094 540.519531 Z M 100.015625 571.289062 " fill-opacity="1" fill-rule="nonzero"/><path fill="#ff4588" d="M 108.421875 635.671875 C 108.652344 637.976562 109.109375 641.507812 111.875 642.429688 C 113.789062 643.042969 115.554688 643.042969 116.246094 643.042969 C 116.554688 643.042969 116.78125 643.195312 116.78125 643.503906 C 116.78125 643.886719 116.167969 644.117188 115.402344 644.117188 C 113.867188 644.117188 106.347656 643.960938 103.894531 643.730469 C 102.28125 643.578125 101.976562 643.347656 101.976562 643.042969 C 101.976562 642.8125 102.128906 642.582031 102.4375 642.503906 C 102.820312 642.429688 102.894531 641.429688 102.742188 640.203125 L 99.519531 607.210938 L 99.367188 607.210938 L 83.101562 640.507812 C 81.71875 643.347656 81.335938 643.960938 80.722656 643.960938 C 80.109375 643.960938 79.722656 643.347656 78.421875 640.96875 C 76.65625 637.746094 72.207031 629.382812 70.519531 625.855469 C 68.523438 621.714844 63.074219 610.742188 61.925781 608.054688 L 61.617188 608.054688 L 59.007812 637.515625 C 58.929688 638.515625 58.929688 639.742188 58.929688 640.816406 C 58.929688 641.8125 59.546875 642.429688 60.542969 642.65625 C 61.695312 642.96875 62.691406 643.042969 63.152344 643.042969 C 63.382812 643.042969 63.6875 643.273438 63.6875 643.503906 C 63.6875 643.960938 63.230469 644.117188 62.460938 644.117188 C 59.929688 644.117188 56.707031 643.886719 56.171875 643.886719 C 55.558594 643.886719 52.335938 644.117188 50.492188 644.117188 C 49.800781 644.117188 49.339844 643.960938 49.339844 643.503906 C 49.339844 643.273438 49.648438 643.042969 50.03125 643.042969 C 50.570312 643.042969 51.03125 642.96875 52.027344 642.8125 C 54.25 642.429688 54.328125 640.046875 54.636719 637.59375 L 59.546875 595.011719 C 59.621094 594.320312 59.929688 593.859375 60.3125 593.859375 C 60.773438 593.859375 61.308594 594.089844 61.695312 594.855469 L 82.101562 635.367188 L 101.746094 594.933594 C 102.050781 594.320312 102.359375 593.859375 102.820312 593.859375 C 103.28125 593.859375 103.664062 594.394531 103.816406 595.625 Z M 108.421875 635.671875 " fill-opacity="1" fill-rule="nonzero"/><path fill="#ff4588" d="M 135.570312 627.160156 C 135.570312 623.628906 135.113281 622.324219 134.113281 620.484375 C 133.578125 619.488281 124.445312 604.984375 122.144531 601.53125 C 120.53125 599.082031 118.921875 597.621094 117.695312 596.777344 C 116.695312 596.160156 115.394531 595.855469 114.855469 595.855469 C 114.472656 595.855469 114.164062 595.550781 114.164062 595.242188 C 114.164062 594.933594 114.394531 594.78125 115.007812 594.78125 C 116.3125 594.78125 121.378906 594.933594 121.683594 594.933594 C 122.144531 594.933594 124.90625 594.78125 127.515625 594.78125 C 128.28125 594.78125 128.4375 594.933594 128.4375 595.242188 C 128.4375 595.472656 127.976562 595.703125 127.363281 595.929688 C 126.824219 596.160156 126.519531 596.46875 126.519531 597.003906 C 126.519531 597.925781 126.976562 598.691406 127.4375 599.542969 L 139.714844 619.871094 C 141.09375 617.109375 149.535156 603.144531 150.761719 600.996094 C 151.605469 599.542969 151.914062 598.464844 151.914062 597.621094 C 151.914062 596.699219 151.605469 596.160156 150.839844 595.929688 C 150.226562 595.78125 149.84375 595.472656 149.84375 595.167969 C 149.84375 594.933594 150.226562 594.78125 150.917969 594.78125 C 152.679688 594.78125 155.0625 594.933594 155.597656 594.933594 C 156.058594 594.933594 160.890625 594.78125 162.195312 594.78125 C 162.65625 594.78125 163.039062 594.933594 163.039062 595.167969 C 163.039062 595.472656 162.730469 595.855469 162.195312 595.855469 C 161.429688 595.855469 160.121094 596.085938 159.050781 596.699219 C 157.746094 597.46875 157.132812 598.15625 155.675781 599.921875 C 153.449219 602.53125 143.933594 617.875 142.550781 620.640625 C 141.402344 622.941406 141.710938 625.015625 141.710938 627.160156 L 141.710938 632.761719 C 141.710938 633.835938 141.710938 636.597656 141.9375 639.28125 C 142.09375 641.203125 142.550781 642.429688 144.546875 642.734375 C 145.46875 642.890625 147.003906 643.042969 147.617188 643.042969 C 148.003906 643.042969 148.152344 643.347656 148.152344 643.578125 C 148.152344 643.886719 147.769531 644.117188 147.078125 644.117188 C 143.320312 644.117188 138.949219 643.886719 138.5625 643.886719 C 138.257812 643.886719 133.960938 644.117188 131.964844 644.117188 C 131.199219 644.117188 130.890625 643.960938 130.890625 643.578125 C 130.890625 643.347656 131.042969 643.042969 131.429688 643.042969 C 132.042969 643.042969 132.808594 642.890625 133.421875 642.734375 C 134.804688 642.429688 135.265625 641.203125 135.417969 639.28125 C 135.570312 636.597656 135.570312 633.835938 135.570312 632.761719 Z M 135.570312 627.160156 " fill-opacity="1" fill-rule="nonzero"/><path fill="#dd2265" d="M 205.074219 579.472656 L 205.824219 579.472656 C 210.933594 573.910156 232.867188 551.527344 237.222656 546.417969 C 241.429688 541.460938 244.734375 537.707031 244.734375 535.152344 C 244.734375 533.5 244.132812 532.449219 242.628906 532.148438 C 241.28125 531.847656 240.679688 531.546875 240.679688 530.648438 C 240.679688 529.59375 241.429688 529.292969 243.082031 529.292969 C 246.234375 529.292969 254.496094 529.746094 258.554688 529.746094 C 263.210938 529.746094 271.476562 529.292969 276.132812 529.292969 C 277.632812 529.292969 278.683594 529.59375 278.683594 530.648438 C 278.683594 531.699219 277.933594 532 276.433594 532 C 274.328125 532 270.574219 532.597656 267.71875 533.648438 C 263.0625 535.453125 257.953125 538.609375 251.496094 544.917969 C 246.835938 549.421875 224.152344 571.960938 219.046875 577.363281 C 224.453125 584.429688 253.898438 616.125 259.753906 621.683594 C 266.367188 627.992188 273.128906 634.753906 281.238281 637.90625 C 285.746094 639.707031 288.75 640.160156 290.550781 640.160156 C 291.605469 640.160156 292.503906 640.460938 292.503906 641.359375 C 292.503906 642.414062 291.753906 642.863281 288.898438 642.863281 L 275.832031 642.863281 C 271.324219 642.863281 268.621094 642.863281 265.464844 642.566406 C 257.351562 641.8125 253.296875 638.507812 246.835938 632.800781 C 240.226562 626.941406 210.632812 592.238281 207.476562 587.878906 L 205.824219 585.628906 L 205.074219 585.628906 L 205.074219 599.300781 C 205.074219 613.121094 205.074219 624.988281 205.527344 631.449219 C 205.824219 635.652344 207.179688 638.957031 210.933594 639.558594 C 213.039062 639.859375 216.339844 640.160156 218.296875 640.160156 C 219.496094 640.160156 220.246094 640.609375 220.246094 641.359375 C 220.246094 642.414062 219.046875 642.863281 217.394531 642.863281 C 208.980469 642.863281 199.515625 642.414062 195.761719 642.414062 C 192.304688 642.414062 182.839844 642.863281 176.832031 642.863281 C 174.878906 642.863281 173.828125 642.414062 173.828125 641.359375 C 173.828125 640.609375 174.429688 640.160156 176.230469 640.160156 C 178.484375 640.160156 180.289062 639.859375 181.640625 639.558594 C 184.644531 638.957031 185.394531 635.652344 185.996094 631.296875 C 186.75 624.988281 186.75 613.121094 186.75 599.300781 L 186.75 572.859375 C 186.75 550.023438 186.75 545.820312 186.445312 541.011719 C 186.144531 535.90625 184.945312 533.5 179.988281 532.449219 C 178.785156 532.148438 176.230469 532 174.128906 532 C 172.476562 532 171.574219 531.699219 171.574219 530.648438 C 171.574219 529.59375 172.625 529.292969 174.878906 529.292969 C 182.839844 529.292969 192.304688 529.746094 195.910156 529.746094 C 199.515625 529.746094 208.980469 529.292969 214.089844 529.292969 C 216.191406 529.292969 217.242188 529.59375 217.242188 530.648438 C 217.242188 531.699219 216.339844 532 215.140625 532 C 213.636719 532 212.734375 532.148438 210.933594 532.449219 C 206.875 533.199219 205.675781 535.753906 205.375 541.011719 C 205.074219 545.820312 205.074219 550.023438 205.074219 572.859375 Z M 205.074219 579.472656 " fill-opacity="1" fill-rule="nonzero"/><path fill="#dd2265" d="M 295.964844 583.222656 C 295.964844 563.84375 295.964844 560.238281 295.8125 556.183594 C 295.511719 551.824219 294.160156 550.324219 291.304688 549.421875 C 289.804688 548.972656 288.152344 548.820312 286.5 548.820312 C 285.144531 548.820312 284.394531 548.523438 284.394531 547.320312 C 284.394531 546.566406 285.445312 546.269531 287.550781 546.269531 C 292.507812 546.269531 301.519531 546.570312 305.277344 546.570312 C 308.582031 546.570312 317.144531 546.269531 322.253906 546.269531 C 323.902344 546.269531 324.957031 546.566406 324.957031 547.320312 C 324.957031 548.523438 324.207031 548.820312 322.851562 548.820312 C 321.5 548.820312 320.449219 548.972656 318.949219 549.273438 C 315.339844 549.875 314.289062 551.675781 313.992188 556.183594 C 313.691406 560.238281 313.691406 563.84375 313.691406 583.222656 L 313.691406 605.753906 C 313.691406 618.078125 313.691406 628.292969 314.289062 633.699219 C 314.742188 637.152344 315.644531 639.105469 319.546875 639.707031 C 321.351562 640.007812 324.355469 640.15625 326.308594 640.15625 C 327.808594 640.15625 328.410156 640.910156 328.410156 641.507812 C 328.410156 642.410156 327.359375 642.863281 325.859375 642.863281 C 317.144531 642.863281 308.132812 642.410156 304.527344 642.410156 C 301.519531 642.410156 292.507812 642.863281 287.25 642.863281 C 285.597656 642.863281 284.695312 642.410156 284.695312 641.507812 C 284.695312 640.910156 285.144531 640.15625 286.796875 640.15625 C 288.75 640.15625 290.253906 640.007812 291.457031 639.707031 C 294.160156 639.105469 294.910156 637.304688 295.359375 633.550781 C 295.964844 628.292969 295.964844 618.078125 295.964844 605.753906 Z M 295.964844 583.222656 " fill-opacity="1" fill-rule="nonzero"/><path fill="#dd2265" d="M 371.527344 554.082031 L 351.851562 554.53125 C 344.1875 554.679688 341.035156 555.582031 339.082031 558.4375 C 337.730469 560.238281 337.128906 561.890625 336.828125 562.792969 C 336.527344 563.84375 336.226562 564.445312 335.324219 564.445312 C 334.421875 564.445312 334.125 563.695312 334.125 562.34375 C 334.125 560.238281 336.675781 547.921875 336.976562 546.871094 C 337.277344 545.214844 337.730469 544.464844 338.480469 544.464844 C 339.53125 544.464844 340.882812 545.519531 344.1875 545.96875 C 348.09375 546.417969 353.050781 546.566406 357.410156 546.566406 L 411.039062 546.566406 C 415.246094 546.566406 418.097656 546.269531 420.050781 545.96875 C 422.15625 545.667969 423.207031 545.367188 423.65625 545.367188 C 424.558594 545.367188 424.710938 546.117188 424.710938 548.070312 C 424.710938 550.773438 424.40625 560.238281 424.40625 563.542969 C 424.257812 564.894531 423.957031 565.644531 423.207031 565.644531 C 422.15625 565.644531 421.855469 565.046875 421.703125 563.09375 L 421.554688 561.742188 C 421.253906 558.4375 417.796875 554.53125 405.929688 554.382812 L 389.253906 554.082031 L 389.253906 605.753906 C 389.253906 617.476562 389.40625 627.542969 390.007812 633.097656 C 390.457031 636.703125 391.207031 639.105469 395.113281 639.707031 C 396.914062 640.011719 399.921875 640.15625 401.875 640.15625 C 403.375 640.15625 403.976562 640.910156 403.976562 641.511719 C 403.976562 642.410156 402.925781 642.863281 401.421875 642.863281 C 392.710938 642.863281 383.847656 642.410156 380.089844 642.410156 C 377.085938 642.410156 368.074219 642.863281 362.816406 642.863281 C 361.164062 642.863281 360.261719 642.410156 360.261719 641.511719 C 360.261719 640.910156 360.710938 640.15625 362.367188 640.15625 C 364.316406 640.15625 365.972656 640.011719 367.023438 639.707031 C 369.726562 639.105469 370.476562 636.703125 370.929688 632.945312 C 371.527344 627.542969 371.527344 617.476562 371.527344 605.753906 Z M 371.527344 554.082031 " fill-opacity="1" fill-rule="nonzero"/><path fill="#dd2265" d="M 446.046875 630.691406 C 432.976562 619.726562 429.523438 605.304688 429.523438 592.988281 C 429.523438 584.273438 432.375 569.25 444.996094 557.984375 C 454.609375 549.574219 467.226562 544.464844 486.90625 544.464844 C 495.167969 544.464844 500.128906 545.066406 506.136719 545.816406 C 511.09375 546.566406 515.449219 547.46875 519.355469 547.921875 C 520.859375 548.070312 521.308594 548.671875 521.308594 549.421875 C 521.308594 550.472656 521.007812 551.976562 520.707031 556.484375 C 520.40625 560.691406 520.40625 567.75 520.257812 570.304688 C 520.109375 572.105469 519.65625 573.457031 518.457031 573.457031 C 517.40625 573.457031 517.101562 572.410156 517.101562 570.753906 C 516.953125 566.699219 515.300781 562.191406 511.992188 558.886719 C 507.488281 554.53125 498.625 551.375 486.457031 551.375 C 474.890625 551.375 467.527344 553.476562 461.519531 558.585938 C 451.753906 566.996094 449.351562 579.316406 449.351562 591.785156 C 449.351562 622.132812 472.785156 636.550781 490.511719 636.550781 C 502.230469 636.550781 508.6875 635.648438 513.949219 629.789062 C 516.199219 627.242188 518.003906 623.632812 518.457031 621.226562 C 518.757812 619.277344 519.054688 618.675781 520.109375 618.675781 C 521.007812 618.675781 521.609375 619.878906 521.609375 620.929688 C 521.609375 622.433594 520.109375 633.550781 518.757812 637.90625 C 518.15625 640.15625 517.554688 640.757812 515.300781 641.660156 C 510.042969 643.765625 499.976562 644.515625 491.414062 644.515625 C 473.386719 644.515625 458.0625 640.757812 446.046875 630.691406 " fill-opacity="1" fill-rule="nonzero"/><path fill="#dd2265" d="M 615.199219 587.878906 C 615.503906 587.878906 615.953125 587.730469 615.953125 586.980469 L 615.953125 584.277344 C 615.953125 564.894531 615.804688 560.238281 615.652344 556.183594 C 615.351562 551.824219 614.148438 550.472656 609.941406 549.273438 C 608.894531 548.972656 606.636719 548.820312 604.835938 548.820312 C 603.332031 548.820312 602.582031 548.371094 602.582031 547.46875 C 602.582031 546.566406 603.484375 546.269531 605.4375 546.269531 C 612.496094 546.269531 621.8125 546.570312 625.265625 546.570312 C 628.421875 546.570312 637.132812 546.269531 642.242188 546.269531 C 644.195312 546.269531 645.09375 546.566406 645.09375 547.46875 C 645.09375 548.371094 644.195312 548.820312 642.691406 548.820312 C 641.640625 548.820312 640.441406 548.972656 638.789062 549.273438 C 635.332031 549.875 634.28125 551.675781 633.980469 556.183594 C 633.679688 560.238281 633.679688 563.84375 633.679688 583.222656 L 633.679688 605.753906 C 633.679688 617.472656 633.679688 627.542969 634.28125 633.097656 C 634.730469 636.703125 635.480469 639.105469 639.539062 639.707031 C 641.339844 640.011719 644.195312 640.15625 646.300781 640.15625 C 647.648438 640.15625 648.402344 640.910156 648.402344 641.507812 C 648.402344 642.410156 647.351562 642.863281 645.695312 642.863281 C 637.132812 642.863281 628.421875 642.410156 624.816406 642.410156 C 621.8125 642.410156 612.496094 642.863281 607.390625 642.863281 C 605.585938 642.863281 604.535156 642.410156 604.535156 641.507812 C 604.535156 640.910156 605.136719 640.15625 606.636719 640.15625 C 608.738281 640.15625 610.246094 640.011719 611.445312 639.707031 C 614.148438 639.105469 614.902344 636.703125 615.351562 632.945312 C 615.953125 627.542969 615.953125 617.773438 615.953125 606.058594 L 615.953125 596.292969 C 615.953125 595.84375 615.503906 595.539062 615.199219 595.539062 L 565.328125 595.539062 C 564.875 595.539062 564.425781 595.691406 564.425781 596.292969 L 564.425781 606.058594 C 564.425781 617.773438 564.574219 627.542969 565.175781 633.097656 C 565.625 636.703125 566.378906 639.105469 570.28125 639.707031 C 572.085938 640.011719 575.089844 640.15625 577.042969 640.15625 C 578.542969 640.15625 579.148438 640.910156 579.148438 641.507812 C 579.148438 642.410156 578.097656 642.863281 576.445312 642.863281 C 567.878906 642.863281 558.714844 642.410156 554.960938 642.410156 C 551.957031 642.410156 543.242188 642.863281 537.984375 642.863281 C 536.332031 642.863281 535.433594 642.410156 535.433594 641.507812 C 535.433594 640.910156 535.882812 640.15625 537.535156 640.15625 C 539.488281 640.15625 540.988281 640.011719 542.191406 639.707031 C 544.894531 639.105469 545.648438 636.703125 546.097656 632.945312 C 546.699219 627.542969 546.699219 617.472656 546.699219 605.753906 L 546.699219 583.222656 C 546.699219 563.84375 546.699219 560.238281 546.550781 556.183594 C 546.246094 551.824219 545.046875 550.472656 540.839844 549.273438 C 539.789062 548.972656 537.535156 548.820312 535.582031 548.820312 C 534.226562 548.820312 533.328125 548.371094 533.328125 547.46875 C 533.328125 546.566406 534.382812 546.269531 536.183594 546.269531 C 543.242188 546.269531 551.957031 546.570312 555.5625 546.570312 C 558.714844 546.570312 567.878906 546.269531 573.136719 546.269531 C 574.941406 546.269531 575.839844 546.566406 575.839844 547.46875 C 575.839844 548.371094 575.089844 548.820312 573.4375 548.820312 C 572.386719 548.820312 571.1875 548.972656 569.683594 549.273438 C 566.078125 549.875 565.023438 551.675781 564.726562 556.183594 C 564.425781 560.238281 564.425781 564.894531 564.425781 584.277344 L 564.425781 586.980469 C 564.425781 587.730469 564.875 587.878906 565.328125 587.878906 Z M 615.199219 587.878906 " fill-opacity="1" fill-rule="nonzero"/><path fill="#dd2265" d="M 673.792969 583.222656 C 673.792969 563.84375 673.792969 560.238281 673.644531 556.183594 C 673.34375 551.824219 672.144531 550.472656 667.933594 549.273438 C 666.882812 548.972656 664.628906 548.820312 662.675781 548.820312 C 661.324219 548.820312 660.425781 548.371094 660.425781 547.46875 C 660.425781 546.566406 661.476562 546.269531 663.425781 546.269531 C 670.335938 546.269531 678.75 546.566406 682.503906 546.566406 C 686.714844 546.566406 716.007812 546.714844 718.558594 546.566406 C 720.960938 546.417969 723.066406 545.96875 724.121094 545.816406 C 724.871094 545.667969 725.621094 545.214844 726.222656 545.214844 C 726.972656 545.214844 727.125 545.816406 727.125 546.417969 C 727.125 547.320312 726.375 548.820312 726.074219 554.679688 C 725.921875 556.03125 725.621094 561.589844 725.320312 563.09375 C 725.171875 563.695312 724.871094 565.199219 723.820312 565.199219 C 722.917969 565.199219 722.769531 564.59375 722.769531 563.542969 C 722.769531 562.644531 722.617188 560.390625 721.867188 558.886719 C 720.8125 556.632812 719.761719 554.832031 713.152344 554.230469 C 710.898438 553.929688 695.125 553.628906 692.421875 553.628906 C 691.820312 553.628906 691.519531 554.082031 691.519531 554.832031 L 691.519531 586.378906 C 691.519531 587.128906 691.671875 587.730469 692.421875 587.730469 C 695.425781 587.730469 712.550781 587.730469 715.554688 587.425781 C 718.710938 587.128906 720.664062 586.828125 721.867188 585.476562 C 722.917969 584.574219 723.367188 583.824219 723.96875 583.824219 C 724.570312 583.824219 725.019531 584.425781 725.019531 585.175781 C 725.019531 585.925781 724.71875 588.03125 723.96875 594.488281 C 723.667969 597.042969 723.367188 602.152344 723.367188 603.050781 C 723.367188 604.101562 723.21875 605.90625 722.015625 605.90625 C 721.113281 605.90625 720.8125 605.457031 720.8125 604.855469 C 720.664062 603.503906 720.664062 601.851562 720.363281 600.199219 C 719.613281 597.648438 717.960938 595.691406 713.003906 595.242188 C 710.601562 594.941406 695.578125 594.636719 692.269531 594.636719 C 691.671875 594.636719 691.519531 595.242188 691.519531 595.992188 L 691.519531 606.210938 C 691.519531 610.5625 691.371094 621.382812 691.519531 625.136719 C 691.820312 633.847656 695.875 635.800781 709.398438 635.800781 C 712.851562 635.800781 718.410156 635.648438 721.867188 634.152344 C 725.171875 632.648438 726.671875 629.941406 727.574219 624.683594 C 727.875 623.332031 728.175781 622.734375 729.078125 622.734375 C 730.128906 622.734375 730.277344 624.386719 730.277344 625.734375 C 730.277344 628.589844 729.226562 637.304688 728.476562 639.859375 C 727.574219 643.164062 726.375 643.164062 721.417969 643.164062 C 711.5 643.164062 703.539062 643.015625 697.078125 642.710938 C 690.621094 642.5625 685.660156 642.410156 681.757812 642.410156 C 680.253906 642.410156 677.398438 642.5625 674.242188 642.5625 C 671.089844 642.710938 667.785156 642.863281 665.082031 642.863281 C 663.425781 642.863281 662.527344 642.410156 662.527344 641.507812 C 662.527344 640.910156 662.976562 640.15625 664.628906 640.15625 C 666.582031 640.15625 668.085938 640.007812 669.289062 639.707031 C 671.988281 639.105469 672.742188 636.703125 673.195312 632.945312 C 673.792969 627.542969 673.792969 617.476562 673.792969 605.753906 Z M 673.792969 583.222656 " fill-opacity="1" fill-rule="nonzero"/><path fill="#dd2265" d="M 762.429688 625.433594 C 762.730469 635.351562 764.382812 638.355469 766.9375 639.257812 C 769.1875 640.007812 771.742188 640.15625 773.84375 640.15625 C 775.351562 640.15625 776.097656 640.757812 776.097656 641.507812 C 776.097656 642.5625 774.898438 642.863281 773.097656 642.863281 C 764.535156 642.863281 758.375 642.410156 755.972656 642.410156 C 754.765625 642.410156 748.460938 642.863281 741.699219 642.863281 C 739.894531 642.863281 738.695312 642.710938 738.695312 641.507812 C 738.695312 640.757812 739.597656 640.15625 740.796875 640.15625 C 742.601562 640.15625 745.003906 640.007812 746.808594 639.558594 C 750.261719 638.65625 750.710938 635.199219 750.863281 624.082031 L 752.0625 548.371094 C 752.0625 545.816406 752.964844 544.011719 754.316406 544.011719 C 755.972656 544.011719 757.773438 545.964844 760.027344 548.21875 C 761.675781 549.875 781.507812 570.15625 800.738281 588.929688 C 809.75 597.792969 827.328125 615.820312 829.277344 617.625 L 829.878906 617.625 L 828.527344 560.839844 C 828.378906 553.027344 827.175781 550.773438 824.019531 549.574219 C 822.070312 548.820312 818.914062 548.820312 817.109375 548.820312 C 815.457031 548.820312 815.007812 548.21875 815.007812 547.46875 C 815.007812 546.417969 816.359375 546.269531 818.3125 546.269531 C 825.222656 546.269531 832.285156 546.566406 835.136719 546.566406 C 836.640625 546.566406 841.601562 546.269531 848.058594 546.269531 C 849.863281 546.269531 851.0625 546.417969 851.0625 547.46875 C 851.0625 548.21875 850.3125 548.820312 848.808594 548.820312 C 847.457031 548.820312 846.40625 548.820312 844.753906 549.273438 C 841.144531 550.324219 840.097656 552.574219 839.945312 559.789062 L 838.441406 640.308594 C 838.441406 643.160156 837.390625 644.363281 836.339844 644.363281 C 834.085938 644.363281 832.285156 643.015625 830.933594 641.660156 C 822.667969 634 806.144531 618.226562 792.324219 604.855469 C 777.902344 591.035156 763.933594 575.5625 761.378906 573.308594 L 760.925781 573.308594 Z M 762.429688 625.433594 " fill-opacity="1" fill-rule="nonzero"/><path fill="#dd2265" d="M 89.195312 363.78125 C 89.789062 360.433594 90.972656 358.65625 92.550781 358.65625 C 94.128906 358.65625 95.308594 359.644531 97.871094 364.769531 L 151.695312 475.964844 L 205.324219 363.386719 C 206.898438 360.234375 207.886719 358.65625 209.660156 358.65625 C 211.433594 358.65625 212.617188 360.628906 213.207031 364.769531 L 231.148438 486.609375 C 232.925781 499.03125 234.894531 504.75 240.808594 506.523438 C 246.527344 508.300781 250.46875 508.492188 253.03125 508.492188 C 254.808594 508.492188 256.1875 508.691406 256.1875 509.875 C 256.1875 511.453125 253.820312 512.042969 251.0625 512.042969 C 246.132812 512.042969 218.925781 511.453125 211.039062 510.863281 C 206.503906 510.464844 205.324219 509.875 205.324219 508.691406 C 205.324219 507.707031 206.109375 507.113281 207.488281 506.523438 C 208.675781 506.128906 209.265625 503.566406 208.476562 498.042969 L 196.648438 411.296875 L 195.859375 411.296875 L 152.878906 500.804688 C 148.34375 510.070312 147.359375 511.847656 145.582031 511.847656 C 143.808594 511.847656 141.835938 507.90625 138.683594 501.988281 C 133.953125 492.917969 118.375 462.753906 116.007812 457.234375 C 114.234375 453.09375 102.40625 428.253906 95.507812 413.464844 L 94.71875 413.464844 L 84.464844 491.933594 C 84.070312 495.480469 83.875 498.042969 83.875 501.199219 C 83.875 504.949219 86.4375 506.722656 89.789062 507.507812 C 93.335938 508.300781 96.097656 508.492188 98.070312 508.492188 C 99.644531 508.492188 101.027344 508.890625 101.027344 509.875 C 101.027344 511.648438 99.253906 512.042969 96.292969 512.042969 C 88.015625 512.042969 79.144531 511.453125 75.59375 511.453125 C 71.847656 511.453125 62.382812 512.042969 56.074219 512.042969 C 54.101562 512.042969 52.527344 511.648438 52.527344 509.875 C 52.527344 508.890625 53.710938 508.492188 55.679688 508.492188 C 57.257812 508.492188 58.636719 508.492188 61.59375 507.90625 C 67.117188 506.722656 68.691406 499.03125 69.679688 492.328125 Z M 89.195312 363.78125 " fill-opacity="1" fill-rule="nonzero"/><path fill="#dd2265" d="M 279.453125 433.773438 C 279.453125 408.339844 279.453125 403.609375 279.257812 398.285156 C 278.863281 392.566406 277.285156 390.792969 271.765625 389.214844 C 270.386719 388.824219 267.425781 388.625 264.863281 388.625 C 263.089844 388.625 261.910156 388.03125 261.910156 386.851562 C 261.910156 385.667969 263.289062 385.273438 265.851562 385.273438 C 274.921875 385.273438 285.960938 385.667969 290.890625 385.667969 C 296.410156 385.667969 334.855469 385.863281 338.207031 385.667969 C 341.359375 385.46875 344.121094 384.878906 345.503906 384.683594 C 346.488281 384.484375 347.472656 383.894531 348.261719 383.894531 C 349.246094 383.894531 349.445312 384.683594 349.445312 385.46875 C 349.445312 386.652344 348.457031 388.625 348.066406 396.3125 C 347.867188 398.085938 347.472656 405.382812 347.078125 407.351562 C 346.882812 408.140625 346.488281 410.113281 345.109375 410.113281 C 343.925781 410.113281 343.726562 409.328125 343.726562 407.945312 C 343.726562 406.765625 343.53125 403.804688 342.542969 401.835938 C 341.164062 398.875 339.785156 396.511719 331.109375 395.722656 C 328.152344 395.328125 307.453125 394.933594 303.902344 394.933594 C 303.113281 394.933594 302.71875 395.523438 302.71875 396.511719 L 302.71875 437.914062 C 302.71875 438.902344 302.917969 439.6875 303.902344 439.6875 C 307.84375 439.6875 330.320312 439.6875 334.265625 439.292969 C 338.40625 438.902344 340.96875 438.503906 342.542969 436.730469 C 343.925781 435.550781 344.515625 434.5625 345.304688 434.5625 C 346.09375 434.5625 346.683594 435.351562 346.683594 436.335938 C 346.683594 437.324219 346.292969 440.082031 345.304688 448.558594 C 344.910156 451.910156 344.515625 458.613281 344.515625 459.796875 C 344.515625 461.175781 344.320312 463.542969 342.742188 463.542969 C 341.558594 463.542969 341.164062 462.953125 341.164062 462.164062 C 340.96875 460.390625 340.96875 458.21875 340.574219 456.050781 C 339.585938 452.703125 337.417969 450.136719 330.914062 449.542969 C 327.757812 449.152344 308.042969 448.753906 303.703125 448.753906 C 302.917969 448.753906 302.71875 449.542969 302.71875 450.53125 L 302.71875 463.9375 C 302.71875 469.652344 302.523438 483.851562 302.71875 488.78125 C 303.113281 500.214844 308.4375 502.777344 326.179688 502.777344 C 330.714844 502.777344 338.007812 502.582031 342.542969 500.609375 C 346.882812 498.636719 348.855469 495.089844 350.035156 488.1875 C 350.429688 486.414062 350.824219 485.625 352.007812 485.625 C 353.386719 485.625 353.585938 487.796875 353.585938 489.570312 C 353.585938 493.316406 352.207031 504.75 351.21875 508.101562 C 350.035156 512.4375 348.457031 512.4375 341.953125 512.4375 C 328.941406 512.4375 318.492188 512.242188 310.015625 511.847656 C 301.539062 511.648438 295.03125 511.453125 289.902344 511.453125 C 287.933594 511.453125 284.1875 511.648438 280.046875 511.648438 C 275.90625 511.847656 271.570312 512.042969 268.019531 512.042969 C 265.851562 512.042969 264.667969 511.453125 264.667969 510.269531 C 264.667969 509.480469 265.261719 508.492188 267.425781 508.492188 C 269.992188 508.492188 271.960938 508.300781 273.539062 507.90625 C 277.089844 507.113281 278.074219 503.957031 278.664062 499.03125 C 279.453125 491.933594 279.453125 478.722656 279.453125 463.347656 Z M 279.453125 433.773438 " fill-opacity="1" fill-rule="nonzero"/><path fill="#dd2265" d="M 436.390625 441.660156 C 441.910156 449.941406 470.695312 495.484375 475.03125 500.804688 C 477.988281 504.550781 480.75 506.328125 484.496094 507.507812 C 486.863281 508.300781 489.621094 508.492188 491.199219 508.492188 C 492.382812 508.492188 493.367188 509.285156 493.367188 510.273438 C 493.367188 511.453125 491.988281 512.042969 490.015625 512.042969 L 484.890625 512.042969 C 480.75 512.042969 466.949219 512.042969 452.75 511.648438 C 448.21875 511.453125 446.644531 511.058594 446.644531 509.875 C 446.644531 508.890625 447.429688 508.101562 449.007812 507.707031 C 449.796875 507.507812 450.980469 506.328125 449.601562 504.15625 C 439.542969 487.796875 430.082031 472.019531 422.195312 459.207031 L 396.761719 498.636719 C 394.988281 501.398438 394 503.957031 394.199219 505.734375 C 394.398438 507.3125 395.972656 508.300781 397.550781 508.300781 C 398.535156 508.300781 399.914062 508.492188 401.296875 508.492188 C 402.28125 508.492188 403.464844 509.480469 403.464844 510.46875 C 403.464844 511.648438 402.28125 512.042969 399.914062 512.042969 L 396.761719 512.042969 C 395.777344 512.042969 384.339844 511.453125 380.003906 511.453125 C 376.652344 511.453125 368.175781 512.042969 365.414062 512.042969 L 362.457031 512.042969 C 360.683594 512.042969 359.894531 511.453125 359.894531 510.46875 C 359.894531 509.480469 360.878906 508.492188 362.257812 508.492188 C 363.441406 508.492188 366.007812 508.300781 368.570312 507.707031 C 373.695312 506.328125 376.457031 503.566406 382.371094 495.484375 L 416.28125 449.742188 L 385.722656 402.03125 C 381.382812 395.328125 377.835938 391.777344 371.722656 389.808594 C 368.960938 389.019531 366.203125 388.625 364.429688 388.625 C 363.441406 388.625 362.65625 387.835938 362.65625 386.652344 C 362.65625 385.667969 364.035156 385.273438 366.203125 385.273438 C 370.34375 385.273438 384.339844 385.667969 392.621094 385.667969 C 394.988281 385.667969 405.632812 385.273438 412.140625 385.273438 C 414.503906 385.273438 415.6875 385.667969 415.6875 386.851562 C 415.6875 388.035156 414.503906 388.625 412.929688 388.625 C 411.941406 388.625 410.167969 388.824219 408.789062 389.214844 C 407.210938 389.613281 406.421875 390.597656 406.421875 391.582031 C 406.421875 392.566406 407.210938 394.738281 408.195312 396.511719 C 415.886719 409.917969 422.984375 421.550781 429.882812 432.984375 C 435.011719 425.492188 450.386719 402.820312 453.34375 398.085938 C 454.726562 395.722656 455.316406 393.355469 455.316406 391.976562 C 455.316406 390.792969 454.132812 389.613281 452.359375 389.214844 C 450.585938 388.625 448.21875 388.625 446.839844 388.625 C 445.851562 388.625 444.667969 388.035156 444.667969 386.851562 C 444.667969 385.667969 445.851562 385.273438 448.417969 385.273438 C 455.117188 385.273438 463.203125 385.667969 466.554688 385.667969 C 469.902344 385.667969 477.003906 385.273438 483.507812 385.273438 C 485.480469 385.273438 486.664062 385.667969 486.664062 386.851562 C 486.664062 387.835938 485.675781 388.625 483.902344 388.625 C 482.128906 388.625 479.960938 389.019531 477.59375 389.613281 C 473.652344 390.597656 470.496094 395.132812 465.175781 402.425781 Z M 436.390625 441.660156 " fill-opacity="1" fill-rule="nonzero"/><path fill="#dd2265" d="M 512.882812 433.773438 C 512.882812 408.339844 512.882812 403.609375 512.691406 398.285156 C 512.296875 392.566406 510.519531 390.597656 506.773438 389.414062 C 504.800781 388.824219 502.632812 388.625 500.464844 388.625 C 498.691406 388.625 497.703125 388.230469 497.703125 386.652344 C 497.703125 385.667969 499.082031 385.273438 501.84375 385.273438 C 508.351562 385.273438 520.179688 385.667969 525.109375 385.667969 C 529.449219 385.667969 540.683594 385.273438 547.386719 385.273438 C 549.558594 385.273438 550.9375 385.667969 550.9375 386.652344 C 550.9375 388.230469 549.953125 388.625 548.175781 388.625 C 546.402344 388.625 545.023438 388.824219 543.050781 389.214844 C 538.320312 390.003906 536.9375 392.371094 536.546875 398.285156 C 536.148438 403.609375 536.148438 408.339844 536.148438 433.773438 L 536.148438 463.347656 C 536.148438 479.515625 536.148438 492.917969 536.9375 500.015625 C 537.53125 504.550781 538.710938 507.113281 543.839844 507.90625 C 546.203125 508.300781 550.148438 508.492188 552.710938 508.492188 C 554.683594 508.492188 555.472656 509.480469 555.472656 510.269531 C 555.472656 511.453125 554.089844 512.042969 552.121094 512.042969 C 540.683594 512.042969 528.855469 511.453125 524.125 511.453125 C 520.179688 511.453125 508.351562 512.042969 501.449219 512.042969 C 499.28125 512.042969 498.097656 511.453125 498.097656 510.269531 C 498.097656 509.480469 498.691406 508.492188 500.859375 508.492188 C 503.421875 508.492188 505.394531 508.300781 506.972656 507.90625 C 510.519531 507.113281 511.507812 504.75 512.097656 499.820312 C 512.882812 492.917969 512.882812 479.515625 512.882812 463.347656 Z M 512.882812 433.773438 " fill-opacity="1" fill-rule="nonzero"/><path fill="#dd2265" d="M 589.777344 496.074219 C 572.625 481.683594 568.089844 462.757812 568.089844 446.589844 C 568.089844 435.152344 571.835938 415.4375 588.398438 400.652344 C 601.015625 389.613281 617.578125 382.910156 643.402344 382.910156 C 654.246094 382.910156 660.753906 383.695312 668.636719 384.683594 C 675.144531 385.667969 680.863281 386.851562 685.988281 387.441406 C 687.960938 387.640625 688.550781 388.425781 688.550781 389.414062 C 688.550781 390.792969 688.160156 392.765625 687.761719 398.679688 C 687.371094 404.199219 687.371094 413.46875 687.171875 416.820312 C 686.972656 419.183594 686.382812 420.957031 684.804688 420.957031 C 683.425781 420.957031 683.03125 419.578125 683.03125 417.410156 C 682.835938 412.089844 680.664062 406.171875 676.328125 401.835938 C 670.414062 396.117188 658.78125 391.976562 642.808594 391.976562 C 627.628906 391.976562 617.972656 394.738281 610.082031 401.441406 C 597.269531 412.480469 594.117188 428.648438 594.117188 445.011719 C 594.117188 484.835938 624.871094 503.765625 648.132812 503.765625 C 663.511719 503.765625 671.992188 502.582031 678.890625 494.890625 C 681.851562 491.539062 684.214844 486.808594 684.804688 483.65625 C 685.199219 481.09375 685.597656 480.304688 686.972656 480.304688 C 688.160156 480.304688 688.949219 481.878906 688.949219 483.257812 C 688.949219 485.230469 686.972656 499.820312 685.199219 505.535156 C 684.414062 508.492188 683.625 509.285156 680.664062 510.46875 C 673.765625 513.226562 660.554688 514.210938 649.320312 514.210938 C 625.65625 514.210938 605.550781 509.285156 589.777344 496.074219 " fill-opacity="1" fill-rule="nonzero"/><path fill="#dd2265" d="M 820.84375 451.714844 C 820.84375 414.652344 798.566406 391.777344 770.570312 391.777344 C 751.25 391.777344 728.578125 402.03125 728.578125 443.433594 C 728.578125 477.9375 748.292969 505.144531 781.019531 505.144531 C 793.242188 505.144531 820.84375 499.425781 820.84375 451.714844 M 702.945312 448.558594 C 702.945312 419.972656 723.054688 382.910156 775.695312 382.910156 C 819.464844 382.910156 846.671875 407.160156 846.671875 445.605469 C 846.671875 484.050781 818.675781 514.214844 773.921875 514.214844 C 723.449219 514.214844 702.945312 478.332031 702.945312 448.558594 " fill-opacity="1" fill-rule="nonzero"/><path fill="#ff4588" d="M 464.804688 680.816406 C 464.804688 680.816406 461.308594 717.0625 477 739.082031 C 486.601562 752.550781 498.90625 750.710938 502.40625 742.582031 C 507.578125 730.558594 473.84375 718.871094 465.035156 680.929688 " fill-opacity="1" fill-rule="nonzero"/><path fill="#ff4588" d="M 478.492188 678.121094 C 478.492188 678.121094 481.066406 709.386719 505.453125 720.898438 C 517.976562 726.8125 528.097656 721.371094 527.238281 714.011719 C 524.761719 692.785156 496.648438 712.769531 478.703125 678.136719 " fill-opacity="1" fill-rule="nonzero"/><path fill="#ff4588" d="M 418.558594 678.121094 C 418.558594 678.121094 415.984375 709.386719 391.59375 720.898438 C 379.070312 726.8125 368.953125 721.371094 369.808594 714.011719 C 372.285156 692.785156 400.402344 712.769531 418.34375 678.136719 " fill-opacity="1" fill-rule="nonzero"/><path fill="#ff4588" d="M 436.4375 680.816406 C 436.4375 680.816406 439.933594 717.0625 424.242188 739.082031 C 414.640625 752.550781 402.335938 750.710938 398.835938 742.582031 C 393.664062 730.558594 427.402344 718.871094 436.207031 680.929688 " fill-opacity="1" fill-rule="nonzero"/><path fill="#ff4588" d="M 449.46875 681.945312 C 449.46875 681.945312 453.8125 711.109375 462.882812 735.375 C 469.886719 754.117188 457.78125 763.261719 450.414062 763.472656 C 443.054688 763.683594 433.175781 753.445312 437.574219 737.714844 C 443.996094 714.722656 449.46875 681.945312 449.46875 681.945312 " fill-opacity="1" fill-rule="nonzero"/><path fill="#dd2265" d="M 863.222656 365.597656 C 863.222656 367.683594 861.53125 369.371094 859.449219 369.371094 L 229.308594 369.371094 C 227.222656 369.371094 225.535156 367.683594 225.535156 365.597656 C 225.535156 363.519531 227.222656 361.828125 229.308594 361.828125 L 859.449219 361.828125 C 861.53125 361.828125 863.222656 363.519531 863.222656 365.597656 " fill-opacity="1" fill-rule="nonzero"/><path fill="#dd2265" d="M 863.222656 669.207031 C 863.222656 671.289062 861.53125 672.976562 859.449219 672.976562 L 37.597656 672.976562 C 35.515625 672.976562 33.828125 671.289062 33.828125 669.207031 C 33.828125 667.125 35.515625 665.433594 37.597656 665.433594 L 859.449219 665.433594 C 861.53125 665.433594 863.222656 667.125 863.222656 669.207031 " fill-opacity="1" fill-rule="nonzero"/></svg>